<svg id="dist" xmlns="http://www.w3.org/2000/svg" xmlns:xlink="http://www.w3.org/1999/xlink" viewBox="0 0 180 16.33" shape-rendering="geometricPrecision" text-rendering="geometricPrecision" width="180" height="16.33">
<style><![CDATA[
#dist-s-path2_to {animation: dist-s-path2_to__to 3000ms linear infinite normal forwards}@keyframes dist-s-path2_to__to { 0% {transform: translate(168.130006px,9.7px);animation-timing-function: cubic-bezier(0.42,0,1,1)} 10% {transform: translate(168.130006px,9.7px);animation-timing-function: cubic-bezier(0.42,0,1,1)} 20% {transform: translate(168.130006px,6.88px);animation-timing-function: cubic-bezier(0,0,0.58,1)} 30% {transform: translate(168.130006px,4.06px)} 40% {transform: translate(168.130006px,6.88px);animation-timing-function: cubic-bezier(0.42,0,1,1)} 50% {transform: translate(168.130006px,9.7px)} 100% {transform: translate(168.130006px,9.7px)}} #dist-s-path3_to {animation: dist-s-path3_to__to 3000ms linear infinite normal forwards}@keyframes dist-s-path3_to__to { 0% {transform: translate(176.720001px,9.7px);animation-timing-function: cubic-bezier(0.42,0,1,1)} 40% {transform: translate(176.720001px,6.88px);animation-timing-function: cubic-bezier(0.42,0,1,1)} 50% {transform: translate(176.720001px,4.06px);animation-timing-function: cubic-bezier(0.42,0,0.58,1)} 60% {transform: translate(176.720001px,6.88px);animation-timing-function: cubic-bezier(0,0,0.58,1)} 70% {transform: translate(176.720001px,9.7px);animation-timing-function: cubic-bezier(0.42,0,0.58,1)} 80% {transform: translate(168.130002px,9.7px);animation-timing-function: cubic-bezier(0.42,0,0.58,1)} 90% {transform: translate(178.200602px,9.7px);animation-timing-function: cubic-bezier(0.42,0,1,1)} 100% {transform: translate(176.720001px,9.7px)}} #dist-s-path4_to {animation: dist-s-path4_to__to 3000ms linear infinite normal forwards}@keyframes dist-s-path4_to__to { 0% {transform: translate(159.529999px,9.7px);animation-timing-function: cubic-bezier(0.42,0,1,1)} 10% {transform: translate(159.529999px,6.745px);animation-timing-function: cubic-bezier(0,0,0.58,1)} 20% {transform: translate(159.529999px,4.06px);animation-timing-function: cubic-bezier(0,0,0.58,1)} 30% {transform: translate(159.529999px,6.88px)} 40% {transform: translate(159.529999px,9.7px);animation-timing-function: cubic-bezier(0.42,0,1,1)} 80% {transform: translate(168.13px,9.7px);animation-timing-function: cubic-bezier(0.42,0,1,1)} 90% {transform: translate(157.845889px,9.7px);animation-timing-function: cubic-bezier(0.42,0,1,1)} 100% {transform: translate(159.529999px,9.7px)}}
]]></style>
<path id="dist-s-path1" d="M51.64,1.79c-2.21,0-4.23,1.71-4.23,4.67s2.01,4.65,4.23,4.65s4.23-1.71,4.23-4.65-2.01-4.67-4.23-4.67Zm0,7.62c-1.3,0-2.08-1.17-2.08-2.95s.78-2.97,2.08-2.97s2.08,1.19,2.08,2.97-.78,2.95-2.08,2.95ZM8.44,2.01h2.01L7.24,11.3c-.74,2-1.67,3.24-3.61,3.24-.49,0-.83-.07-1.16-.18l.38-1.61c.17.05.43.12.64.12.93,0,1.48-.64,1.77-1.53l.17-.56-3.5-8.77h2.12L5.58,6.37c.27.79.52,1.66.78,2.51h.07c.23-.83.45-1.7.68-2.51c0,0,1.32-4.36,1.32-4.36ZM150.92,6.24v-.07c.98-.29,1.48-1,1.48-1.87c0-1.7-1.46-2.3-3.43-2.3h-3.61v8.9h3.79c2.04,0,3.61-.75,3.61-2.55c0-1.24-.79-1.85-1.84-2.11Zm-3.51-2.81h1.41c1.11,0,1.57.41,1.57,1.09s-.46,1.09-1.63,1.09h-1.35v-2.18ZM149,9.48h-1.59v-2.46h1.53c1.21,0,1.79.48,1.79,1.19c0,.78-.53,1.27-1.73,1.27v0ZM19.22,2.01h7.67v1.66h-2.8v7.23h-2.08v-7.24h-2.8v-1.66v0Zm24.05,0h2.08v8.89h-2.08v-3.66h-3.54v3.66h-2.08v-8.89h2.08v3.4h3.54v-3.4Zm78.36-.22c-2.09,0-4.1,1.78-4.1,4.67s1.92,4.65,4.38,4.65c1.13,0,2.2-.39,3.05-.96l-.71-1.3c-.65.41-1.3.64-2.06.64-1.43,0-2.45-.9-2.62-2.47h5.64c.05-.22.09-.62.09-1.01c0-2.48-1.27-4.22-3.67-4.22v0ZM119.55,5.6c.18-1.43,1.09-2.2,2.13-2.2c1.22,0,1.82.83,1.82,2.2h-3.95ZM31.82,1.79c-1.41,0-2.67.55-3.65,1.17l.77,1.39c.78-.48,1.61-.88,2.5-.88c1.2,0,1.59.8,1.61,1.75-3.65.39-5.23,1.38-5.23,3.29c0,1.55,1.07,2.6,2.63,2.6c1.05,0,1.96-.52,2.76-1.2h.06l.16.98h1.71v-5.26c0-2.47-1.09-3.84-3.32-3.84Zm1.23,6.72c-.66.61-1.21.96-1.93.96s-1.28-.34-1.28-1.13c0-.9.8-1.53,3.21-1.83v2Zm-15.41.13l.85,1.38c-.83.74-1.89,1.09-2.9,1.09-2.42,0-4.28-1.71-4.28-4.65s2.09-4.67,4.46-4.67c1.13,0,1.95.44,2.6,1L17.36,4.14c-.47-.41-.92-.65-1.48-.65-1.43,0-2.42,1.19-2.42,2.97s.98,2.95,2.36,2.95c.7,0,1.33-.34,1.84-.77Zm96.37-2.42l3.01,4.67h-2.29l-2.25-3.77h-1.33v3.77h-2.08v-8.88h2.08v3.46h1.3l.83-1.79c.7-1.53,1.45-1.88,2.58-1.88.23,0,.44.03.62.11l-.34,1.93c-.11-.03-.19-.06-.32-.06-.45,0-.81.15-1.2,1.06l-.61,1.38v0ZM103.24,1.79c-1.41,0-2.67.55-3.65,1.17l.77,1.39c.78-.48,1.61-.88,2.5-.88c1.2,0,1.58.8,1.61,1.75-3.65.39-5.23,1.38-5.23,3.29c0,1.55,1.07,2.6,2.63,2.6c1.05,0,1.96-.52,2.76-1.2h.06l.16.98h1.71v-5.26c0-2.47-1.09-3.84-3.32-3.84v0Zm1.23,6.72c-.66.61-1.21.96-1.93.96s-1.28-.34-1.28-1.13c0-.9.8-1.53,3.21-1.83v2ZM126.25,2h7.67v1.66h-2.8v7.24h-2.08v-7.24h-2.8v-1.66v0Zm12.82-.23c-2.21,0-4.23,1.71-4.23,4.67s2.01,4.65,4.23,4.65s4.23-1.71,4.23-4.65-2.01-4.67-4.23-4.67Zm0,7.62c-1.3,0-2.08-1.17-2.08-2.95s.78-2.97,2.08-2.97s2.08,1.19,2.08,2.97-.78,2.95-2.08,2.95ZM63.48,6.23v-.07c.98-.29,1.48-1,1.48-1.87c0-1.7-1.46-2.3-3.43-2.3h-3.61v8.91h3.79c2.04,0,3.61-.75,3.61-2.55c0-1.24-.79-1.85-1.84-2.11v0ZM59.97,3.4h1.41c1.12,0,1.57.41,1.57,1.09s-.46,1.09-1.63,1.09h-1.35v-2.16Zm1.59,6.05h-1.59v-2.46h1.53c1.21,0,1.79.48,1.79,1.19c0,.78-.53,1.27-1.73,1.27v0ZM89.53,2h7.55v8.9h-2.08v-7.24h-3.38v7.23h-2.08v-8.88v0ZM72.25,6.21l3.01,4.67h-2.29L70.72,7.11h-1.33v3.77h-2.08v-8.87h2.08v3.46h1.3l.83-1.79c.7-1.53,1.45-1.88,2.58-1.88.23,0,.44.03.62.11l-.34,1.93c-.11-.03-.19-.06-.32-.06-.45,0-.81.15-1.2,1.06l-.61,1.38v0Zm7.84-4.43c-1.41,0-2.67.55-3.65,1.17l.77,1.39c.78-.48,1.61-.88,2.5-.88c1.2,0,1.59.8,1.61,1.75-3.65.39-5.23,1.38-5.23,3.29c0,1.55,1.07,2.6,2.63,2.6c1.05,0,1.96-.52,2.76-1.2h.06l.16.98h1.71v-5.25c0-2.47-1.09-3.84-3.32-3.84ZM81.32,8.5c-.66.61-1.21.96-1.93.96s-1.28-.34-1.28-1.13c0-.9.8-1.53,3.21-1.83v2v0Z" fill="#00b764"/><g id="dist-s-path2_to" transform="translate(168.130006,9.7)"><path id="dist-s-path2" d="M166.78,9.71c0-.82.59-1.42,1.35-1.42s1.35.6,1.35,1.42-.59,1.4-1.35,1.4-1.35-.6-1.35-1.4Z" transform="translate(-168.130005,-9.7)" fill="#00b764"/></g><g id="dist-s-path3_to" transform="translate(176.720001,9.7)"><path id="dist-s-path3" d="M175.37,9.71c0-.82.59-1.42,1.35-1.42s1.35.6,1.35,1.42-.59,1.4-1.35,1.4-1.35-.6-1.35-1.4Z" transform="translate(-176.720001,-9.7)" fill="#00b764"/></g><g id="dist-s-path4_to" transform="translate(159.529999,9.7)"><path id="dist-s-path4" d="M160.88,9.71c0,.8-.59,1.4-1.35,1.4s-1.35-.6-1.35-1.4.59-1.42,1.35-1.42s1.35.6,1.35,1.42Z" transform="translate(-159.529999,-9.7)" fill="#00b764"/></g></svg>
