<?xml version="1.0" encoding="UTF-8"?><svg id="a" xmlns="http://www.w3.org/2000/svg" width="117" height="20" xmlns:xlink="http://www.w3.org/1999/xlink" viewBox="0 0 117 20"><defs><style>.d{fill:#555;}.e{fill:#fff;}.f{clip-path:url(#b);}.g{fill:none;}.h{fill:url(#c);}.i{fill:#007ec6;}</style><clipPath id="b"><rect class="g" y="0" width="117" height="20" rx="3" ry="3"/></clipPath><linearGradient id="c" x1="-236.46" y1="410.34" x2="-236.46" y2="409.34" gradientTransform="translate(27724 8206.8) scale(117 -20)" gradientUnits="userSpaceOnUse"><stop offset="0" stop-color="#bbb" stop-opacity=".1"/><stop offset="1" stop-color="#000" stop-opacity=".1"/></linearGradient></defs><g class="f"><g><path class="d" d="M0,0H30V20H0V0Z"/><path class="i" d="M30,0H117V20H30V0Z"/><path class="h" d="M0,0H117V20H0V0Z"/></g></g><path d="M37.41,13.38c-.11,.18-.25,.33-.39,.48-.15,.14-.32,.26-.51,.36-.19,.1-.42,.18-.66,.23-.25,.05-.52,.08-.83,.08-.54,0-1-.08-1.38-.25-.38-.16-.69-.39-.93-.69s-.42-.66-.53-1.07c-.11-.41-.17-.87-.17-1.38s.06-1,.17-1.42c.12-.42,.3-.78,.54-1.08,.24-.3,.55-.53,.92-.69,.37-.16,.81-.24,1.33-.24,.54,0,1.02,.09,1.42,.28,.4,.19,.72,.48,.95,.86l-1.03,.69c-.14-.22-.32-.39-.53-.51-.21-.12-.47-.17-.79-.17-.55,0-.96,.18-1.22,.55-.26,.37-.39,.94-.39,1.73,0,.36,.03,.68,.09,.96,.06,.28,.15,.51,.28,.7s.3,.33,.51,.43c.21,.1,.47,.15,.78,.15,.14,0,.28-.01,.4-.03s.24-.06,.35-.11c.11-.05,.21-.12,.31-.21,.1-.09,.19-.19,.29-.32l1.03,.68Zm2.58-5.48v2.66h.87c.14,0,.27-.04,.39-.11,.12-.07,.25-.21,.37-.4,.12-.2,.25-.47,.38-.81,.13-.35,.27-.79,.41-1.34h1.34c-.14,.56-.28,1.03-.42,1.41s-.28,.68-.42,.92c-.14,.24-.28,.42-.42,.54-.14,.12-.28,.21-.42,.28,.27,.1,.5,.24,.68,.41,.18,.17,.34,.39,.47,.65,.14,.26,.26,.58,.37,.95,.11,.37,.24,.79,.37,1.29h-1.35c-.15-.47-.28-.88-.39-1.23-.11-.34-.24-.63-.37-.85-.13-.22-.28-.39-.45-.5-.17-.11-.39-.16-.65-.16h-.77v2.74h-1.3V7.9h1.3Zm8.84,6.44v-.73c-.3,.27-.62,.49-.96,.66-.34,.17-.71,.26-1.1,.26-.33,0-.62-.05-.87-.15-.25-.1-.47-.24-.64-.41-.17-.18-.3-.39-.39-.63-.09-.24-.14-.51-.14-.81,0-.39,.06-.71,.19-.98,.13-.26,.31-.48,.53-.64,.23-.17,.5-.29,.81-.37,.31-.08,.66-.14,1.03-.18l1.47-.14v-.3c0-.21-.03-.39-.1-.53s-.16-.25-.28-.34c-.12-.09-.27-.15-.45-.18-.18-.03-.38-.05-.6-.05s-.41,.02-.57,.06-.3,.09-.42,.16-.22,.14-.29,.22-.14,.17-.18,.25l-1.04-.67c.08-.14,.19-.27,.32-.41,.14-.13,.31-.25,.51-.36,.21-.1,.45-.19,.73-.25,.28-.07,.6-.1,.97-.1,.45,0,.85,.04,1.19,.11s.62,.2,.85,.37c.23,.17,.4,.4,.51,.69,.11,.29,.17,.65,.17,1.08v4.38h-1.26Zm-.06-3.13l-.92,.09c-.28,.03-.53,.06-.75,.12-.22,.05-.4,.13-.55,.22-.15,.09-.26,.21-.34,.35-.08,.14-.12,.31-.12,.52,0,.34,.09,.58,.27,.72,.18,.14,.43,.21,.76,.21,.13,0,.26-.02,.4-.07,.14-.05,.28-.1,.42-.18,.14-.07,.28-.16,.42-.26,.14-.1,.28-.21,.41-.32v-1.41Zm2.76-3.31h1.3v1.69c0,.32,.02,.59,.05,.8,.03,.21,.09,.37,.17,.5,.08,.12,.19,.21,.32,.25,.13,.05,.3,.07,.51,.07,.11,0,.24,0,.38-.02,.14-.02,.29-.04,.44-.06,.15-.03,.3-.06,.45-.1,.15-.04,.29-.08,.41-.12v-3.01h1.31v6.44h-1.31v-2.44c-.16,.04-.32,.09-.48,.13-.17,.04-.33,.09-.5,.12s-.34,.07-.5,.09c-.16,.02-.31,.04-.45,.04-.36,0-.68-.04-.94-.12-.26-.08-.48-.21-.65-.4-.17-.18-.3-.43-.38-.73-.08-.3-.12-.67-.12-1.1v-2.05Zm10.94,6.44v-.73c-.3,.27-.62,.49-.96,.66s-.71,.26-1.1,.26c-.33,0-.62-.05-.87-.15-.25-.1-.47-.24-.64-.41-.17-.18-.3-.39-.39-.63-.09-.24-.14-.51-.14-.81,0-.39,.06-.71,.19-.98,.13-.26,.31-.48,.53-.64,.23-.17,.5-.29,.81-.37,.31-.08,.66-.14,1.03-.18l1.47-.14v-.3c0-.21-.03-.39-.09-.53s-.16-.25-.28-.34c-.12-.09-.27-.15-.45-.18-.18-.03-.38-.05-.61-.05s-.41,.02-.57,.06c-.16,.04-.3,.09-.42,.16-.12,.07-.22,.14-.29,.22s-.14,.17-.18,.25l-1.04-.67c.08-.14,.19-.27,.32-.41,.14-.13,.31-.25,.51-.36,.21-.1,.45-.19,.73-.25,.28-.07,.6-.1,.97-.1,.45,0,.85,.04,1.19,.11s.62,.2,.85,.37c.23,.17,.4,.4,.51,.69s.17,.65,.17,1.08v4.38h-1.26Zm-.06-3.13l-.92,.09c-.28,.03-.53,.06-.75,.12-.22,.05-.4,.13-.55,.22-.15,.09-.26,.21-.34,.35-.08,.14-.12,.31-.12,.52,0,.34,.09,.58,.27,.72,.18,.14,.43,.21,.76,.21,.13,0,.26-.02,.4-.07,.14-.05,.28-.1,.42-.18,.14-.07,.28-.16,.42-.26,.14-.1,.28-.21,.41-.32v-1.41Zm7.82-2.31h-2.13v5.45h-1.31v-5.45h-2.12v-.99h5.56v.99Zm2.32,1.36h1.06c.97,0,1.67,.17,2.12,.51s.67,.86,.67,1.57c0,.35-.05,.65-.16,.9s-.28,.46-.51,.63-.52,.29-.88,.37c-.35,.08-.78,.12-1.27,.12h-2.33V7.9h1.3v2.35Zm2.49,2.06c0-.2-.03-.37-.08-.5-.05-.13-.15-.24-.27-.33s-.29-.14-.49-.17c-.2-.03-.45-.05-.75-.05h-.9v2.09h1c.54,0,.92-.08,1.15-.25s.34-.43,.34-.79Zm7.55,1.28c0,.3-.07,.52-.21,.64-.14,.12-.36,.19-.67,.19-.17,0-.31-.02-.42-.06-.11-.04-.2-.09-.27-.16-.07-.07-.12-.16-.14-.26-.03-.1-.04-.22-.04-.35,0-.29,.07-.5,.2-.64,.13-.13,.36-.2,.67-.2s.55,.07,.68,.2c.13,.13,.2,.35,.2,.64Zm3.29-7.39c0,.27-.06,.46-.19,.56s-.33,.16-.6,.16c-.29,0-.5-.06-.61-.18-.11-.12-.17-.3-.17-.53,0-.25,.06-.44,.18-.55,.12-.11,.32-.17,.6-.17s.49,.06,.61,.17c.12,.11,.18,.29,.18,.55Zm-1.44,8.14V7.9h1.32v6.44h-1.32Zm8.98-3.27c0,.45-.05,.88-.15,1.3-.1,.42-.25,.79-.46,1.11-.21,.32-.48,.57-.8,.76-.33,.19-.72,.29-1.18,.29-.35,0-.67-.06-.98-.18-.3-.12-.58-.29-.84-.51v2.93h-1.32V7.9h1.25v.64c.27-.25,.57-.44,.91-.6,.33-.15,.7-.23,1.1-.23,.43,0,.8,.08,1.11,.25s.57,.39,.77,.69c.2,.29,.35,.65,.45,1.06s.14,.87,.14,1.36Zm-1.36,.02c0-.72-.12-1.27-.36-1.65-.24-.38-.59-.56-1.06-.56-.15,0-.3,.02-.44,.06-.15,.04-.29,.09-.43,.16-.14,.07-.27,.15-.4,.23-.13,.09-.24,.18-.34,.28v3.12c.1,.09,.21,.17,.32,.24,.12,.08,.24,.14,.37,.2,.13,.06,.27,.1,.41,.14,.14,.03,.28,.05,.42,.05,.2,0,.4-.04,.58-.13,.18-.09,.34-.22,.48-.4,.14-.18,.25-.42,.33-.7,.08-.28,.12-.63,.12-1.03Zm2.2,4.36c.14,.06,.29,.1,.46,.13,.16,.03,.32,.05,.47,.05,.12,0,.24-.02,.35-.06s.21-.11,.31-.21c.1-.1,.2-.22,.29-.38,.09-.16,.18-.35,.27-.57l.19-.46-2.34-6.05h1.39l1.65,4.42,1.68-4.42h1.36l-2.77,6.91c-.14,.35-.29,.65-.44,.9s-.31,.45-.5,.61c-.18,.16-.39,.27-.62,.34-.23,.07-.49,.11-.79,.11-.21,0-.42-.02-.65-.05-.22-.03-.43-.08-.61-.13l.3-1.12Zm11.37-1.12v-3.67c0-.32-.01-.59-.03-.81-.02-.22-.06-.4-.13-.54-.07-.14-.16-.24-.29-.3-.12-.06-.29-.09-.49-.09-.13,0-.28,.03-.43,.08s-.31,.13-.47,.22c-.16,.09-.32,.2-.48,.32-.16,.12-.31,.25-.46,.38v4.43h-1.32V7.9h1.32v.9c.14-.14,.29-.27,.47-.41s.35-.25,.54-.35c.19-.1,.39-.18,.59-.24,.2-.06,.41-.09,.61-.09,.36,0,.66,.05,.9,.15,.24,.1,.44,.25,.58,.45,.14,.2,.25,.44,.31,.73s.09,.62,.09,.99v4.3h-1.32Zm8.93-3.27c0,.46-.05,.9-.14,1.32-.09,.42-.24,.79-.45,1.1-.2,.32-.47,.57-.79,.76s-.71,.28-1.17,.28c-.18,0-.37-.02-.55-.06-.18-.04-.36-.1-.52-.17-.17-.07-.33-.15-.47-.24-.15-.09-.28-.19-.39-.29l-.1,.56h-1.13V5.19h1.32v3.29c.25-.22,.54-.4,.87-.55,.33-.15,.68-.22,1.06-.22,.43,0,.81,.08,1.12,.24,.31,.16,.57,.39,.77,.68,.2,.29,.35,.65,.44,1.06,.09,.41,.14,.87,.14,1.38Zm-1.36,.02c0-.74-.12-1.29-.34-1.66-.23-.37-.59-.56-1.09-.56-.14,0-.29,.02-.44,.06-.15,.04-.29,.09-.43,.16-.14,.07-.27,.15-.4,.23-.13,.09-.24,.18-.35,.28v3.12c.1,.09,.21,.17,.33,.24s.25,.14,.39,.2c.13,.06,.27,.1,.41,.14,.14,.03,.27,.05,.41,.05,.21,0,.41-.04,.59-.12s.34-.21,.48-.39c.14-.18,.24-.41,.32-.7,.08-.29,.12-.63,.12-1.04Z"/><path class="e" d="M37.41,12.38c-.11,.18-.25,.33-.39,.48-.15,.14-.32,.26-.51,.36-.19,.1-.42,.18-.66,.23-.25,.05-.52,.08-.83,.08-.54,0-1-.08-1.38-.25-.38-.16-.69-.39-.93-.69s-.42-.66-.53-1.07c-.11-.41-.17-.87-.17-1.38s.06-1,.17-1.42c.12-.42,.3-.78,.54-1.08,.24-.3,.55-.53,.92-.69,.37-.16,.81-.24,1.33-.24,.54,0,1.02,.09,1.42,.28,.4,.19,.72,.48,.95,.86l-1.03,.69c-.14-.22-.32-.39-.53-.51-.21-.12-.47-.17-.79-.17-.55,0-.96,.18-1.22,.55-.26,.37-.39,.94-.39,1.73,0,.36,.03,.68,.09,.96,.06,.28,.15,.51,.28,.7s.3,.33,.51,.43c.21,.1,.47,.15,.78,.15,.14,0,.28-.01,.4-.03s.24-.06,.35-.11c.11-.05,.21-.12,.31-.21,.1-.09,.19-.19,.29-.32l1.03,.68Zm2.58-5.48v2.66h.87c.14,0,.27-.04,.39-.11,.12-.07,.25-.21,.37-.4,.12-.2,.25-.47,.38-.81,.13-.35,.27-.79,.41-1.34h1.34c-.14,.56-.28,1.03-.42,1.41s-.28,.68-.42,.92c-.14,.24-.28,.42-.42,.54-.14,.12-.28,.21-.42,.28,.27,.1,.5,.24,.68,.41,.18,.17,.34,.39,.47,.65,.14,.26,.26,.58,.37,.95,.11,.37,.24,.79,.37,1.29h-1.35c-.15-.47-.28-.88-.39-1.23-.11-.34-.24-.63-.37-.85-.13-.22-.28-.39-.45-.5-.17-.11-.39-.16-.65-.16h-.77v2.74h-1.3V6.9h1.3Zm8.84,6.44v-.73c-.3,.27-.62,.49-.96,.66-.34,.17-.71,.26-1.1,.26-.33,0-.62-.05-.87-.15-.25-.1-.47-.24-.64-.41-.17-.18-.3-.39-.39-.63-.09-.24-.14-.51-.14-.81,0-.39,.06-.71,.19-.98,.13-.26,.31-.48,.53-.64,.23-.17,.5-.29,.81-.37,.31-.08,.66-.14,1.03-.18l1.47-.14v-.3c0-.21-.03-.39-.1-.53s-.16-.25-.28-.34c-.12-.09-.27-.15-.45-.18-.18-.03-.38-.05-.6-.05s-.41,.02-.57,.06-.3,.09-.42,.16-.22,.14-.29,.22-.14,.17-.18,.25l-1.04-.67c.08-.14,.19-.27,.32-.41,.14-.13,.31-.25,.51-.36,.21-.1,.45-.19,.73-.25,.28-.07,.6-.1,.97-.1,.45,0,.85,.04,1.19,.11s.62,.2,.85,.37c.23,.17,.4,.4,.51,.69,.11,.29,.17,.65,.17,1.08v4.38h-1.26Zm-.06-3.13l-.92,.09c-.28,.03-.53,.06-.75,.12-.22,.05-.4,.13-.55,.22-.15,.09-.26,.21-.34,.35-.08,.14-.12,.31-.12,.52,0,.34,.09,.58,.27,.72,.18,.14,.43,.21,.76,.21,.13,0,.26-.02,.4-.07,.14-.05,.28-.1,.42-.18,.14-.07,.28-.16,.42-.26,.14-.1,.28-.21,.41-.32v-1.41Zm2.76-3.31h1.3v1.69c0,.32,.02,.59,.05,.8,.03,.21,.09,.37,.17,.5,.08,.12,.19,.21,.32,.25,.13,.05,.3,.07,.51,.07,.11,0,.24,0,.38-.02,.14-.02,.29-.04,.44-.06,.15-.03,.3-.06,.45-.1,.15-.04,.29-.08,.41-.12v-3.01h1.31v6.44h-1.31v-2.44c-.16,.04-.32,.09-.48,.13-.17,.04-.33,.09-.5,.12s-.34,.07-.5,.09c-.16,.02-.31,.04-.45,.04-.36,0-.68-.04-.94-.12-.26-.08-.48-.21-.65-.4-.17-.18-.3-.43-.38-.73-.08-.3-.12-.67-.12-1.1v-2.05Zm10.94,6.44v-.73c-.3,.27-.62,.49-.96,.66s-.71,.26-1.1,.26c-.33,0-.62-.05-.87-.15-.25-.1-.47-.24-.64-.41-.17-.18-.3-.39-.39-.63-.09-.24-.14-.51-.14-.81,0-.39,.06-.71,.19-.98,.13-.26,.31-.48,.53-.64,.23-.17,.5-.29,.81-.37,.31-.08,.66-.14,1.03-.18l1.47-.14v-.3c0-.21-.03-.39-.09-.53s-.16-.25-.28-.34c-.12-.09-.27-.15-.45-.18-.18-.03-.38-.05-.61-.05s-.41,.02-.57,.06c-.16,.04-.3,.09-.42,.16-.12,.07-.22,.14-.29,.22s-.14,.17-.18,.25l-1.04-.67c.08-.14,.19-.27,.32-.41,.14-.13,.31-.25,.51-.36,.21-.1,.45-.19,.73-.25,.28-.07,.6-.1,.97-.1,.45,0,.85,.04,1.19,.11s.62,.2,.85,.37c.23,.17,.4,.4,.51,.69s.17,.65,.17,1.08v4.38h-1.26Zm-.06-3.13l-.92,.09c-.28,.03-.53,.06-.75,.12-.22,.05-.4,.13-.55,.22-.15,.09-.26,.21-.34,.35-.08,.14-.12,.31-.12,.52,0,.34,.09,.58,.27,.72,.18,.14,.43,.21,.76,.21,.13,0,.26-.02,.4-.07,.14-.05,.28-.1,.42-.18,.14-.07,.28-.16,.42-.26,.14-.1,.28-.21,.41-.32v-1.41Zm7.82-2.31h-2.13v5.45h-1.31V7.89h-2.12v-.99h5.56v.99Zm2.32,1.36h1.06c.97,0,1.67,.17,2.12,.51s.67,.86,.67,1.57c0,.35-.05,.65-.16,.9s-.28,.46-.51,.63-.52,.29-.88,.37c-.35,.08-.78,.12-1.27,.12h-2.33V6.9h1.3v2.35Zm2.49,2.06c0-.2-.03-.37-.08-.5-.05-.13-.15-.24-.27-.33s-.29-.14-.49-.17c-.2-.03-.45-.05-.75-.05h-.9v2.09h1c.54,0,.92-.08,1.15-.25s.34-.43,.34-.79Zm7.55,1.28c0,.3-.07,.52-.21,.64-.14,.12-.36,.19-.67,.19-.17,0-.31-.02-.42-.06-.11-.04-.2-.09-.27-.16-.07-.07-.12-.16-.14-.26-.03-.1-.04-.22-.04-.35,0-.29,.07-.5,.2-.64,.13-.13,.36-.2,.67-.2s.55,.07,.68,.2c.13,.13,.2,.35,.2,.64Zm3.29-7.39c0,.27-.06,.46-.19,.56s-.33,.16-.6,.16c-.29,0-.5-.06-.61-.18-.11-.12-.17-.3-.17-.53,0-.25,.06-.44,.18-.55,.12-.11,.32-.17,.6-.17s.49,.06,.61,.17c.12,.11,.18,.29,.18,.55Zm-1.44,8.14V6.9h1.32v6.44h-1.32Zm8.98-3.27c0,.45-.05,.88-.15,1.3-.1,.42-.25,.79-.46,1.11-.21,.32-.48,.57-.8,.76-.33,.19-.72,.29-1.18,.29-.35,0-.67-.06-.98-.18-.3-.12-.58-.29-.84-.51v2.93h-1.32V6.9h1.25v.64c.27-.25,.57-.44,.91-.6,.33-.15,.7-.23,1.1-.23,.43,0,.8,.08,1.11,.25s.57,.39,.77,.69c.2,.29,.35,.65,.45,1.06s.14,.87,.14,1.36Zm-1.36,.02c0-.72-.12-1.27-.36-1.65-.24-.38-.59-.56-1.06-.56-.15,0-.3,.02-.44,.06-.15,.04-.29,.09-.43,.16-.14,.07-.27,.15-.4,.23-.13,.09-.24,.18-.34,.28v3.12c.1,.09,.21,.17,.32,.24,.12,.08,.24,.14,.37,.2,.13,.06,.27,.1,.41,.14,.14,.03,.28,.05,.42,.05,.2,0,.4-.04,.58-.13,.18-.09,.34-.22,.48-.4,.14-.18,.25-.42,.33-.7,.08-.28,.12-.63,.12-1.03Zm2.2,4.36c.14,.06,.29,.1,.46,.13,.16,.03,.32,.05,.47,.05,.12,0,.24-.02,.35-.06s.21-.11,.31-.21c.1-.1,.2-.22,.29-.38,.09-.16,.18-.35,.27-.57l.19-.46-2.34-6.05h1.39l1.65,4.42,1.68-4.42h1.36l-2.77,6.91c-.14,.35-.29,.65-.44,.9s-.31,.45-.5,.61c-.18,.16-.39,.27-.62,.34-.23,.07-.49,.11-.79,.11-.21,0-.42-.02-.65-.05-.22-.03-.43-.08-.61-.13l.3-1.12Zm11.37-1.12v-3.67c0-.32-.01-.59-.03-.81-.02-.22-.06-.4-.13-.54-.07-.14-.16-.24-.29-.3-.12-.06-.29-.09-.49-.09-.13,0-.28,.03-.43,.08s-.31,.13-.47,.22c-.16,.09-.32,.2-.48,.32-.16,.12-.31,.25-.46,.38v4.43h-1.32V6.9h1.32v.9c.14-.14,.29-.27,.47-.41s.35-.25,.54-.35c.19-.1,.39-.18,.59-.24,.2-.06,.41-.09,.61-.09,.36,0,.66,.05,.9,.15,.24,.1,.44,.25,.58,.45,.14,.2,.25,.44,.31,.73s.09,.62,.09,.99v4.3h-1.32Zm8.93-3.27c0,.46-.05,.9-.14,1.32-.09,.42-.24,.79-.45,1.1-.2,.32-.47,.57-.79,.76s-.71,.28-1.17,.28c-.18,0-.37-.02-.55-.06-.18-.04-.36-.1-.52-.17-.17-.07-.33-.15-.47-.24-.15-.09-.28-.19-.39-.29l-.1,.56h-1.13V4.19h1.32v3.29c.25-.22,.54-.4,.87-.55,.33-.15,.68-.22,1.06-.22,.43,0,.81,.08,1.12,.24,.31,.16,.57,.39,.77,.68,.2,.29,.35,.65,.44,1.06,.09,.41,.14,.87,.14,1.38Zm-1.36,.02c0-.74-.12-1.29-.34-1.66-.23-.37-.59-.56-1.09-.56-.14,0-.29,.02-.44,.06-.15,.04-.29,.09-.43,.16-.14,.07-.27,.15-.4,.23-.13,.09-.24,.18-.35,.28v3.12c.1,.09,.21,.17,.33,.24s.25,.14,.39,.2c.13,.06,.27,.1,.41,.14,.14,.03,.27,.05,.41,.05,.21,0,.41-.04,.59-.12s.34-.21,.48-.39c.14-.18,.24-.41,.32-.7,.08-.29,.12-.63,.12-1.04Z"/><path class="e" d="M21.29,12.29v3.1H9.9v-3.1h-2.19v4.02c0,.5,.49,.91,1.1,.91h13.58c.61,0,1.1-.41,1.1-.91v-4.02h-2.19Zm-5.9-.31l-3.13-3.16s-.48-.38,.04-.38h1.77V3.85s-.07-.22,.33-.22h2.49c.29,0,.28,.19,.28,.19v4.54h1.63c.63,0,.15,.39,.15,.39,0,0-2.67,2.95-3.04,3.26-.27,.22-.52-.03-.52-.03Z"/></svg>