<svg xmlns="http://www.w3.org/2000/svg" viewBox="0 0 117 20"><defs><clipPath id="A"><rect width="117" height="20" rx="3" fill="none"/></clipPath><linearGradient id="B" x1="58.18" y1="0" x2="58.18" y2="20" gradientUnits="userSpaceOnUse"><stop offset="0" stop-color="#bbb" stop-opacity=".1"/><stop offset="1" stop-opacity=".1"/></linearGradient></defs><g clip-path="url(#A)"><path d="M0,0H30V20H0V0Z" fill="#555"/><path d="M30 0h87v20H30V0z" fill="#007ec6"/><path d="M0,0H117V20H0V0Z" fill="url(#B)"/></g><path d="M37.41 13.38c-.11.18-.25.33-.39.48a2.34 2.34 0 0 1-.51.36c-.19.1-.42.18-.66.23-.25.05-.52.08-.83.08-.54 0-1-.08-1.38-.25-.38-.16-.69-.39-.93-.69s-.42-.66-.53-1.07a5.32 5.32 0 0 1-.17-1.38 5.7 5.7 0 0 1 .17-1.42c.12-.42.3-.78.54-1.08s.55-.53.92-.69.81-.24 1.33-.24c.54 0 1.02.09 1.42.28s.72.48.95.86l-1.03.69c-.14-.22-.32-.39-.53-.51s-.47-.17-.79-.17c-.55 0-.96.18-1.22.55s-.39.94-.39 1.73a4.61 4.61 0 0 0 .09.96c.06.28.15.51.28.7s.3.33.51.43.47.15.78.15c.14 0 .28-.01.4-.03s.24-.06.35-.11.21-.12.31-.21.19-.19.29-.32l1.03.68zm2.58-5.48v2.66h.87c.14 0 .27-.04.39-.11s.25-.21.37-.4a5.24 5.24 0 0 0 .38-.81c.13-.35.27-.79.41-1.34h1.34l-.42 1.41c-.14.38-.28.68-.42.92s-.28.42-.42.54-.28.21-.42.28c.27.1.5.24.68.41s.34.39.47.65c.14.26.26.58.37.95l.37 1.29h-1.35l-.39-1.23c-.11-.34-.24-.63-.37-.85s-.28-.39-.45-.5-.39-.16-.65-.16h-.77v2.74h-1.3V7.9h1.3zm8.84 6.44v-.73c-.3.27-.62.49-.96.66a2.44 2.44 0 0 1-1.1.26c-.33 0-.62-.05-.87-.15s-.47-.24-.64-.41c-.17-.18-.3-.39-.39-.63s-.14-.51-.14-.81c0-.39.06-.71.19-.98.13-.26.31-.48.53-.64.23-.17.5-.29.81-.37s.66-.14 1.03-.18l1.47-.14v-.3c0-.21-.03-.39-.1-.53a.93.93 0 0 0-.28-.34c-.12-.09-.27-.15-.45-.18s-.38-.05-.6-.05-.41.02-.57.06-.3.09-.42.16-.22.14-.29.22-.14.17-.18.25l-1.04-.67a2.29 2.29 0 0 1 .32-.41c.14-.13.31-.25.51-.36a3.28 3.28 0 0 1 .73-.25c.28-.07.6-.1.97-.1.45 0 .85.04 1.19.11s.62.2.85.37.4.4.51.69.17.65.17 1.08v4.38h-1.26zm-.06-3.13l-.92.09c-.28.03-.53.06-.75.12-.22.05-.4.13-.55.22a.95.95 0 0 0-.34.35c-.08.14-.12.31-.12.52 0 .34.09.58.27.72s.43.21.76.21c.13 0 .26-.02.4-.07s.28-.1.42-.18a3.19 3.19 0 0 0 .42-.26l.41-.32V11.2zm2.76-3.31h1.3v1.69c0 .32.02.59.05.8s.09.37.17.5c.08.12.19.21.32.25.13.05.3.07.51.07.11 0 .24 0 .38-.02l.44-.06.45-.1.41-.12V7.9h1.31v6.44h-1.31V11.9l-.48.13-.5.12-.5.09-.45.04c-.36 0-.68-.04-.94-.12s-.48-.21-.65-.4c-.17-.18-.3-.43-.38-.73s-.12-.67-.12-1.1V7.88zm10.94 6.44v-.73c-.3.27-.62.49-.96.66a2.44 2.44 0 0 1-1.1.26c-.33 0-.62-.05-.87-.15s-.47-.24-.64-.41c-.17-.18-.3-.39-.39-.63s-.14-.51-.14-.81c0-.39.06-.71.19-.98.13-.26.31-.48.53-.64.23-.17.5-.29.81-.37s.66-.14 1.03-.18l1.47-.14v-.3c0-.21-.03-.39-.09-.53s-.16-.25-.28-.34-.27-.15-.45-.18a3.67 3.67 0 0 0-.61-.05c-.23 0-.41.02-.57.06s-.3.09-.42.16-.22.14-.29.22-.14.17-.18.25l-1.04-.67a2.29 2.29 0 0 1 .32-.41c.14-.13.31-.25.51-.36a3.28 3.28 0 0 1 .73-.25c.28-.07.6-.1.97-.1.45 0 .85.04 1.19.11s.62.2.85.37.4.4.51.69.17.65.17 1.08v4.38h-1.26zm-.06-3.13l-.92.09c-.28.03-.53.06-.75.12-.22.05-.4.13-.55.22a.95.95 0 0 0-.34.35c-.08.14-.12.31-.12.52 0 .34.09.58.27.72s.43.21.76.21c.13 0 .26-.02.4-.07s.28-.1.42-.18a3.19 3.19 0 0 0 .42-.26l.41-.32V11.2zm7.82-2.31H68.1v5.45h-1.31V8.9h-2.12v-.99h5.56v.99zm2.32 1.36h1.06c.97 0 1.67.17 2.12.51s.67.86.67 1.57c0 .35-.05.65-.16.9a1.55 1.55 0 0 1-.51.63c-.23.17-.52.29-.88.37-.35.08-.78.12-1.27.12h-2.33V7.9h1.3v2.35zm2.49 2.06c0-.2-.03-.37-.08-.5s-.15-.24-.27-.33-.29-.14-.49-.17-.45-.05-.75-.05h-.9v2.09h1c.54 0 .92-.08 1.15-.25s.34-.43.34-.79zm7.55 1.28c0 .3-.07.52-.21.64s-.36.19-.67.19c-.17 0-.31-.02-.42-.06s-.2-.09-.27-.16a.51.51 0 0 1-.14-.26c-.03-.1-.04-.22-.04-.35 0-.29.07-.5.2-.64.13-.13.36-.2.67-.2s.55.07.68.2.2.35.2.64zm3.29-7.39c0 .27-.06.46-.19.56s-.33.16-.6.16c-.29 0-.5-.06-.61-.18s-.17-.3-.17-.53c0-.25.06-.44.18-.55s.32-.17.6-.17.49.06.61.17.18.29.18.55zm-1.44 8.14V7.9h1.32v6.44h-1.32zm8.98-3.27c0 .45-.05.88-.15 1.3s-.25.79-.46 1.11a2.42 2.42 0 0 1-.8.76c-.33.19-.72.29-1.18.29-.35 0-.67-.06-.98-.18a3.05 3.05 0 0 1-.84-.51v2.93h-1.32V7.9h1.25v.64c.27-.25.57-.44.91-.6a2.64 2.64 0 0 1 1.1-.23c.43 0 .8.08 1.11.25s.57.39.77.69c.2.29.35.65.45 1.06s.14.87.14 1.36zm-1.36.02c0-.72-.12-1.27-.36-1.65s-.59-.56-1.06-.56a1.61 1.61 0 0 0-.44.06c-.15.04-.29.09-.43.16s-.27.15-.4.23c-.13.09-.24.18-.34.28v3.12a2.43 2.43 0 0 0 .32.24c.12.08.24.14.37.2s.27.1.41.14c.14.03.28.05.42.05.2 0 .4-.04.58-.13a1.39 1.39 0 0 0 .48-.4 2.07 2.07 0 0 0 .33-.7c.08-.28.12-.63.12-1.03zm2.2 4.36a2.06 2.06 0 0 0 .46.13c.16.03.32.05.47.05a1.03 1.03 0 0 0 .35-.06c.11-.04.21-.11.31-.21a1.72 1.72 0 0 0 .29-.38c.09-.16.18-.35.27-.57l.19-.46-2.34-6.05h1.39l1.65 4.42 1.68-4.42h1.36l-2.77 6.91c-.14.35-.29.65-.44.9a2.37 2.37 0 0 1-.5.61c-.18.16-.39.27-.62.34a2.69 2.69 0 0 1-.79.11c-.21 0-.42-.02-.65-.05-.22-.03-.43-.08-.61-.13l.3-1.12zm11.37-1.12v-3.67l-.03-.81c-.02-.22-.06-.4-.13-.54s-.16-.24-.29-.3c-.12-.06-.29-.09-.49-.09-.13 0-.28.03-.43.08s-.31.13-.47.22-.32.2-.48.32l-.46.38v4.43h-1.32V7.9h1.32v.9a4.93 4.93 0 0 1 .47-.41c.18-.14.35-.25.54-.35a3.32 3.32 0 0 1 .59-.24c.2-.06.41-.09.61-.09.36 0 .66.05.9.15s.44.25.58.45.25.44.31.73.09.62.09.99v4.3h-1.32zm8.93-3.27c0 .46-.05.9-.14 1.32s-.24.79-.45 1.1c-.2.32-.47.57-.79.76s-.71.28-1.17.28c-.18 0-.37-.02-.55-.06a2.88 2.88 0 0 1-.52-.17c-.17-.07-.33-.15-.47-.24a2.47 2.47 0 0 1-.39-.29l-.1.56h-1.13V5.19h1.32v3.29c.25-.22.54-.4.87-.55s.68-.22 1.06-.22c.43 0 .81.08 1.12.24a2.1 2.1 0 0 1 .77.68c.2.29.35.65.44 1.06a6.44 6.44 0 0 1 .14 1.38zm-1.36.02c0-.74-.12-1.29-.34-1.66-.23-.37-.59-.56-1.09-.56-.14 0-.29.02-.44.06s-.29.09-.43.16-.27.15-.4.23a3.3 3.3 0 0 0-.35.28v3.12a1.99 1.99 0 0 0 .33.24c.12.07.25.14.39.2.13.06.27.1.41.14.14.03.27.05.41.05.21 0 .41-.04.59-.12s.34-.21.48-.39.24-.41.32-.7.12-.63.12-1.04z"/><path d="M37.41 12.38c-.11.18-.25.33-.39.48a2.34 2.34 0 0 1-.51.36c-.19.1-.42.18-.66.23-.25.05-.52.08-.83.08-.54 0-1-.08-1.38-.25-.38-.16-.69-.39-.93-.69s-.42-.66-.53-1.07a5.32 5.32 0 0 1-.17-1.38 5.7 5.7 0 0 1 .17-1.42c.12-.42.3-.78.54-1.08s.55-.53.92-.69.81-.24 1.33-.24c.54 0 1.02.09 1.42.28s.72.48.95.86l-1.03.69c-.14-.22-.32-.39-.53-.51s-.47-.17-.79-.17c-.55 0-.96.18-1.22.55s-.39.94-.39 1.73a4.61 4.61 0 0 0 .09.96c.06.28.15.51.28.7s.3.33.51.43.47.15.78.15c.14 0 .28-.01.4-.03s.24-.06.35-.11.21-.12.31-.21.19-.19.29-.32l1.03.68zm2.58-5.48v2.66h.87c.14 0 .27-.04.39-.11s.25-.21.37-.4a5.24 5.24 0 0 0 .38-.81c.13-.35.27-.79.41-1.34h1.34l-.42 1.41c-.14.38-.28.68-.42.92s-.28.42-.42.54-.28.21-.42.28c.27.1.5.24.68.41s.34.39.47.65c.14.26.26.58.37.95l.37 1.29h-1.35l-.39-1.23c-.11-.34-.24-.63-.37-.85s-.28-.39-.45-.5-.39-.16-.65-.16h-.77v2.74h-1.3V6.9h1.3zm8.84 6.44v-.73c-.3.27-.62.49-.96.66a2.44 2.44 0 0 1-1.1.26c-.33 0-.62-.05-.87-.15s-.47-.24-.64-.41c-.17-.18-.3-.39-.39-.63s-.14-.51-.14-.81c0-.39.06-.71.19-.98.13-.26.31-.48.53-.64.23-.17.5-.29.81-.37s.66-.14 1.03-.18l1.47-.14v-.3c0-.21-.03-.39-.1-.53a.93.93 0 0 0-.28-.34c-.12-.09-.27-.15-.45-.18s-.38-.05-.6-.05-.41.02-.57.06-.3.09-.42.16-.22.14-.29.22-.14.17-.18.25l-1.04-.67a2.29 2.29 0 0 1 .32-.41c.14-.13.31-.25.51-.36a3.28 3.28 0 0 1 .73-.25c.28-.07.6-.1.97-.1.45 0 .85.04 1.19.11s.62.2.85.37.4.4.51.69.17.65.17 1.08v4.38h-1.26zm-.06-3.13l-.92.09c-.28.03-.53.06-.75.12-.22.05-.4.13-.55.22a.95.95 0 0 0-.34.35c-.08.14-.12.31-.12.52 0 .34.09.58.27.72s.43.21.76.21c.13 0 .26-.02.4-.07s.28-.1.42-.18a3.19 3.19 0 0 0 .42-.26l.41-.32V10.2zm2.76-3.31h1.3v1.69c0 .32.02.59.05.8s.09.37.17.5c.08.12.19.21.32.25.13.05.3.07.51.07.11 0 .24 0 .38-.02l.44-.06.45-.1.41-.12V6.9h1.31v6.44h-1.31V10.9l-.48.13-.5.12-.5.09-.45.04c-.36 0-.68-.04-.94-.12s-.48-.21-.65-.4c-.17-.18-.3-.43-.38-.73s-.12-.67-.12-1.1V6.88zm10.94 6.44v-.73c-.3.27-.62.49-.96.66a2.44 2.44 0 0 1-1.1.26c-.33 0-.62-.05-.87-.15s-.47-.24-.64-.41c-.17-.18-.3-.39-.39-.63s-.14-.51-.14-.81c0-.39.06-.71.19-.98.13-.26.31-.48.53-.64.23-.17.5-.29.81-.37s.66-.14 1.03-.18l1.47-.14v-.3c0-.21-.03-.39-.09-.53s-.16-.25-.28-.34-.27-.15-.45-.18a3.67 3.67 0 0 0-.61-.05c-.23 0-.41.02-.57.06s-.3.09-.42.16-.22.14-.29.22-.14.17-.18.25l-1.04-.67a2.29 2.29 0 0 1 .32-.41c.14-.13.31-.25.51-.36a3.28 3.28 0 0 1 .73-.25c.28-.07.6-.1.97-.1.45 0 .85.04 1.19.11s.62.2.85.37.4.4.51.69.17.65.17 1.08v4.38h-1.26zm-.06-3.13l-.92.09c-.28.03-.53.06-.75.12-.22.05-.4.13-.55.22a.95.95 0 0 0-.34.35c-.08.14-.12.31-.12.52 0 .34.09.58.27.72s.43.21.76.21c.13 0 .26-.02.4-.07s.28-.1.42-.18a3.19 3.19 0 0 0 .42-.26l.41-.32V10.2zm7.82-2.31H68.1v5.45h-1.31V7.89h-2.12V6.9h5.56v.99zm2.32 1.36h1.06c.97 0 1.67.17 2.12.51s.67.86.67 1.57c0 .35-.05.65-.16.9a1.55 1.55 0 0 1-.51.63c-.23.17-.52.29-.88.37-.35.08-.78.12-1.27.12h-2.33V6.9h1.3v2.35zm2.49 2.06c0-.2-.03-.37-.08-.5s-.15-.24-.27-.33-.29-.14-.49-.17-.45-.05-.75-.05h-.9v2.09h1c.54 0 .92-.08 1.15-.25s.34-.43.34-.79zm7.55 1.28c0 .3-.07.52-.21.64s-.36.19-.67.19c-.17 0-.31-.02-.42-.06s-.2-.09-.27-.16a.51.51 0 0 1-.14-.26c-.03-.1-.04-.22-.04-.35 0-.29.07-.5.2-.64.13-.13.36-.2.67-.2s.55.07.68.2.2.35.2.64zm3.29-7.39c0 .27-.06.46-.19.56s-.33.16-.6.16c-.29 0-.5-.06-.61-.18s-.17-.3-.17-.53c0-.25.06-.44.18-.55s.32-.17.6-.17.49.06.61.17.18.29.18.55zm-1.44 8.14V6.9h1.32v6.44h-1.32zm8.98-3.27c0 .45-.05.88-.15 1.3s-.25.79-.46 1.11a2.42 2.42 0 0 1-.8.76c-.33.19-.72.29-1.18.29-.35 0-.67-.06-.98-.18a3.05 3.05 0 0 1-.84-.51v2.93h-1.32V6.9h1.25v.64c.27-.25.57-.44.91-.6a2.64 2.64 0 0 1 1.1-.23c.43 0 .8.08 1.11.25s.57.39.77.69c.2.29.35.65.45 1.06s.14.87.14 1.36zm-1.36.02c0-.72-.12-1.27-.36-1.65s-.59-.56-1.06-.56a1.61 1.61 0 0 0-.44.06c-.15.04-.29.09-.43.16s-.27.15-.4.23c-.13.09-.24.18-.34.28v3.12a2.43 2.43 0 0 0 .32.24c.12.08.24.14.37.2s.27.1.41.14c.14.03.28.05.42.05.2 0 .4-.04.58-.13a1.39 1.39 0 0 0 .48-.4 2.07 2.07 0 0 0 .33-.7c.08-.28.12-.63.12-1.03zm2.2 4.36a2.06 2.06 0 0 0 .46.13c.16.03.32.05.47.05a1.03 1.03 0 0 0 .35-.06c.11-.04.21-.11.31-.21a1.72 1.72 0 0 0 .29-.38c.09-.16.18-.35.27-.57l.19-.46-2.34-6.05h1.39l1.65 4.42 1.68-4.42h1.36l-2.77 6.91c-.14.35-.29.65-.44.9a2.37 2.37 0 0 1-.5.61c-.18.16-.39.27-.62.34a2.69 2.69 0 0 1-.79.11c-.21 0-.42-.02-.65-.05-.22-.03-.43-.08-.61-.13l.3-1.12zm11.37-1.12V9.67l-.03-.81c-.02-.22-.06-.4-.13-.54s-.16-.24-.29-.3c-.12-.06-.29-.09-.49-.09-.13 0-.28.03-.43.08s-.31.13-.47.22-.32.2-.48.32l-.46.38v4.43h-1.32V6.9h1.32v.9a4.93 4.93 0 0 1 .47-.41c.18-.14.35-.25.54-.35a3.32 3.32 0 0 1 .59-.24c.2-.06.41-.09.61-.09.36 0 .66.05.9.15s.44.25.58.45.25.44.31.73.09.62.09.99v4.3h-1.32zm8.93-3.27c0 .46-.05.9-.14 1.32s-.24.79-.45 1.1c-.2.32-.47.57-.79.76s-.71.28-1.17.28c-.18 0-.37-.02-.55-.06a2.88 2.88 0 0 1-.52-.17c-.17-.07-.33-.15-.47-.24a2.47 2.47 0 0 1-.39-.29l-.1.56h-1.13V4.19h1.32v3.29c.25-.22.54-.4.87-.55s.68-.22 1.06-.22c.43 0 .81.08 1.12.24a2.1 2.1 0 0 1 .77.68c.2.29.35.65.44 1.06a6.44 6.44 0 0 1 .14 1.38zm-1.36.02c0-.74-.12-1.29-.34-1.66-.23-.37-.59-.56-1.09-.56-.14 0-.29.02-.44.06s-.29.09-.43.16-.27.15-.4.23a3.3 3.3 0 0 0-.35.28v3.12a1.99 1.99 0 0 0 .33.24c.12.07.25.14.39.2.13.06.27.1.41.14.14.03.27.05.41.05.21 0 .41-.04.59-.12s.34-.21.48-.39.24-.41.32-.7.12-.63.12-1.04zm-91.91 2.2v3.1H9.9v-3.1H7.71v4.02c0 .5.49.91 1.1.91h13.58c.61 0 1.1-.41 1.1-.91v-4.02H21.3zm-5.9-.31l-3.13-3.16s-.48-.38.04-.38h1.77V3.85s-.07-.22.33-.22h2.49c.29 0 .28.19.28.19v4.54h1.63c.63 0 .15.39.15.39l-3.04 3.26c-.27.22-.52-.03-.52-.03z" fill="#fff"/></svg>