<svg xmlns="http://www.w3.org/2000/svg" viewBox="0 0 346.19 61.31" xmlns:v="https://vecta.io/nano"><defs><linearGradient id="A" x1="394.13" y1="540.21" x2="394.13" y2="539.73" gradientTransform="translate(-50417.99 69146.6) scale(128 -128)" gradientUnits="userSpaceOnUse"><stop offset="0" stop-color="#2aabee"/><stop offset="1" stop-color="#229ed9"/></linearGradient></defs><circle cx="30.66" cy="30.66" r="30.66" fill="url(#A)"/><path d="M13.88 30.33l17.88-7.7c8.51-3.54 10.28-4.16 11.44-4.18.25 0 .82.06 1.19.36.31.25.4.59.44.83s.09.78.05 1.21c-.46 4.85-2.46 16.61-3.47 22.04-.43 2.3-1.28 3.07-2.09 3.14-1.78.16-3.13-1.18-4.86-2.31l-6.84-4.6c-3.03-1.99-1.06-3.09.66-4.88.45-.47 8.29-7.6 8.45-8.25.02-.08.04-.38-.14-.54s-.44-.1-.63-.06c-.27.06-4.58 2.91-12.93 8.55-1.22.84-2.33 1.25-3.32 1.23-1.09-.02-3.2-.62-4.77-1.13-1.92-.62-3.45-.95-3.31-2.01.07-.55.83-1.12 2.28-1.69z" fill="#fff"/><path d="M75.49 8.24h-4.24v8.63h-2.17V6.55h8.57v10.32h-2.17V8.24zm14.25 2.78v1.34c0 3-1.89 4.69-4.59 4.69s-4.59-1.67-4.59-4.68v-1.34c0-2.82 1.88-4.66 4.59-4.66s4.59 1.75 4.59 4.65zm-7 .12v1.15c0 1.73.82 3.01 2.42 3.01s2.39-1.27 2.39-3.01v-1.15c0-1.73-.85-3.02-2.39-3.02s-2.42 1.29-2.42 3.02zm8.47 8.52V15.2h.87c.88-.47 1.02-1.58 1.15-4.81l.16-3.83h7.65v8.63h1.58v4.46h-1.89v-2.78h-7.61v2.78h-1.9zm7.68-11.42h-3.56l-.11 2.16c-.13 2.85-.27 4.02-.77 4.7v.1h4.44V8.25zm5.44 4.17v-1.4c0-2.93 1.9-4.64 4.42-4.64s4.41 1.8 4.41 4.64v1.21h-6.7v.51c0 1.48.88 2.58 2.4 2.58 1.13 0 1.91-.54 2.06-1.18h2.12c-.13 1.19-1.39 2.92-4.16 2.92s-4.56-1.73-4.56-4.64zm6.72-1.6v-.14c0-1.55-.91-2.59-2.29-2.59s-2.29 1.04-2.29 2.59v.14h4.58zm5.71-4.26h7.36v10.32h-2.16V8.24h-3.25l-.07 2.23c-.11 4.23-.35 6.52-3.01 6.52-.45 0-.72-.13-.72-.13v-1.9s.2.08.45.08c1.22 0 1.26-1.75 1.32-4.68l.08-3.81zm17.57 3.21h-.12l-4.63 7.11h-1.99V6.55h2.08v7.11h.12l4.63-7.11h1.99v10.32h-2.08V9.76zm4.98 1.17c0-2.76 1.72-4.56 4.44-4.56s4.07 1.62 4.11 3.38h-2.05c-.09-.65-.58-1.57-2-1.57-1.52 0-2.33 1.09-2.33 2.8v1.45c0 1.74.88 2.82 2.33 2.82 1.38 0 1.91-.65 2.06-1.47h2.05c-.06 1.75-1.4 3.27-4.17 3.27s-4.44-1.77-4.44-4.62v-1.49zm11.36-4.38h2.17v3.38h1.74c2.42 0 3.96 1.34 3.96 3.48s-1.53 3.47-3.96 3.47h-3.91V6.55zm2.15 5.05v3.6h1.53c1.23 0 2.02-.72 2.02-1.82s-.79-1.79-2.03-1.79h-1.52zm12.13-.66c0-2.76 1.72-4.56 4.44-4.56s4.07 1.62 4.11 3.38h-2.05c-.09-.65-.58-1.57-2-1.57-1.52 0-2.33 1.09-2.33 2.8v1.45c0 1.74.88 2.82 2.33 2.82 1.38 0 1.91-.65 2.06-1.47h2.05c-.06 1.75-1.4 3.27-4.17 3.27s-4.44-1.77-4.44-4.62v-1.49zm11.36-4.38h4.65c1.89 0 3.2 1.01 3.2 2.62 0 1.22-.71 1.96-1.73 2.22v.08c1.36.17 2.28 1.06 2.28 2.5 0 1.9-1.63 2.91-3.83 2.91h-4.57V6.55zm2.13 4.28h1.71c1.27 0 1.91-.45 1.91-1.45 0-.88-.69-1.3-1.62-1.3h-2v2.74zm0 4.51h1.96c1.27 0 2.17-.36 2.17-1.5 0-1.01-.78-1.54-1.99-1.54h-2.14v3.05zm17.71-4.32v1.34c0 3-1.89 4.69-4.59 4.69s-4.59-1.67-4.59-4.68v-1.34c0-2.82 1.88-4.66 4.59-4.66s4.59 1.75 4.59 4.65zm-7 .12v1.15c0 1.73.82 3.01 2.42 3.01s2.39-1.27 2.39-3.01v-1.15c0-1.73-.85-3.02-2.39-3.02s-2.42 1.29-2.42 3.02zm16.63-1.38h-.12l-4.63 7.11h-1.99V6.55h2.08v7.11h.12l4.63-7.11h1.99v10.32h-2.08V9.76zm7.57 7.11h-2.03V6.55h2.42l3.2 6.92h.1l3.21-6.92h2.39v10.32h-2.06v-6.75h-.09l-2.77 5.75h-1.49l-2.78-5.75h-.1v6.75zm19.5-7.11h-.12l-4.63 7.11h-1.99V6.55h2.08v7.11h.12l4.63-7.11h1.99v10.32h-2.08V9.76zm15.14 6.97l-.22.59c-.86 2.29-2 3.17-4 3.17-.38 0-.91-.04-1.18-.1v-1.65c.16.03.55.06.79.06 1.15 0 1.74-.44 1.99-1.52l.09-.33-3.68-10.4h2.4l2.46 8.35h.09l2.49-8.35h2.29c-.44 1.44-3.51 10.16-3.52 10.19zm5.23-5.8c0-2.76 1.72-4.56 4.44-4.56s4.07 1.62 4.11 3.38h-2.05c-.09-.65-.58-1.57-2-1.57-1.52 0-2.33 1.09-2.33 2.8v1.45c0 1.74.88 2.82 2.33 2.82 1.38 0 1.91-.65 2.06-1.47h2.05c-.06 1.75-1.4 3.27-4.17 3.27s-4.44-1.77-4.44-4.62v-1.49zm17.76-2.7h-4.24v8.63h-2.17V6.55h8.57v10.32h-2.17V8.24zm5.07 4.17v-1.4c0-2.93 1.9-4.64 4.42-4.64s4.41 1.8 4.41 4.64v1.21h-6.7v.51c0 1.48.88 2.58 2.4 2.58 1.13 0 1.91-.54 2.06-1.18h2.12c-.13 1.19-1.39 2.92-4.16 2.92s-4.56-1.73-4.56-4.64zm6.72-1.6v-.14c0-1.55-.91-2.59-2.29-2.59s-2.29 1.04-2.29 2.59v.14h4.58zm8.56 2.4h-.09l-2.22 3.66h-2.35l3.33-5.12-3.4-5.21h2.54l2.16 3.64h.09l2.23-3.64h2.41l-3.44 5.08 3.43 5.24h-2.48l-2.21-3.66zm6.53.66c0-1.83 1.27-3.06 3.65-3.06h2.61v-.97c0-1.18-.75-1.74-1.94-1.74s-1.7.49-1.87 1.17h-2.06c.13-1.73 1.43-2.89 3.99-2.89 2.21 0 4.03.92 4.03 3.49v6.99h-2.06v-1.34h-.1c-.46.79-1.36 1.49-2.88 1.49-2 0-3.38-1.23-3.38-3.15zm6.26-.49v-1.11h-2.27c-1.26 0-1.82.63-1.82 1.49 0 1.07.9 1.58 1.88 1.58 1.23 0 2.21-.84 2.21-1.96zm7.59 3.49h-2.03V6.55h2.42l3.2 6.92h.1l3.21-6.92H321v10.32h-2.06v-6.75h-.09l-2.77 5.75h-1.49l-2.78-5.75h-.1v6.75zm19.5-7.11h-.12l-4.63 7.11h-1.99V6.55h2.08v7.11h.12l4.63-7.11h1.99v10.32h-2.08V9.76zm6.68 4.42c.94 0 1.58.6 1.58 1.45s-.63 1.43-1.58 1.43c-.89 0-1.54-.61-1.54-1.43s.64-1.45 1.54-1.45zm1.23-10.64l-.26 8.69h-1.89l-.25-8.69h2.41z" fill="#c90049"/><path d="M78.19 38c.89 0 1.57.63 1.57 1.54s-.68 1.51-1.57 1.51-1.54-.62-1.54-1.51.68-1.54 1.54-1.54zm-8.52-9.96h2.12v2.58h2.31v1.7h-2.31v5.48c0 1.12.42 1.44 1.58 1.44l.85-.04v1.66a12.6 12.6 0 0 1-1.39.09c-2.51 0-3.19-.9-3.19-2.97v-5.65h-1.57v-1.7h1.6v-2.58zm13.14 2.51h2.13v1.68h.11c.23-.75.93-1.84 2.81-1.84 1.56 0 2.53.83 2.85 1.93h.09c.38-.98 1.38-1.93 3.13-1.93 2.11 0 3.36 1.2 3.36 3.24v7.24h-2.16v-6.59c0-1.31-.72-2.07-1.96-2.07-1.16 0-2.06.89-2.06 2.26v6.41H89v-6.53c0-1.34-.8-2.13-1.99-2.13s-2.03.86-2.03 2.24v6.43h-2.17V30.57zm17.22 5.86v-1.4c0-2.93 1.91-4.64 4.43-4.64s4.41 1.8 4.41 4.64v1.21h-6.7v.51c0 1.48.88 2.58 2.4 2.58 1.13 0 1.91-.54 2.06-1.18h2.12c-.13 1.19-1.39 2.92-4.17 2.92s-4.56-1.73-4.56-4.64zm6.73-1.6v-.14c0-1.55-.91-2.59-2.29-2.59s-2.29 1.04-2.29 2.59v.14h4.58zm3.21 9.1l4.81-17.07h1.98l-4.8 17.07h-1.99zm12.05-13.54c2.27 0 3.82 1.13 3.82 2.96h-1.95c-.06-.67-.67-1.38-1.92-1.38-1.1 0-1.86.52-1.86 1.41 0 1.14 1.46 1.3 2.61 1.49 1.92.33 3.41.95 3.41 2.9 0 2.08-1.65 3.29-4.27 3.29-2.45 0-4.02-1.1-4.02-2.95h2.11c.12.83.71 1.37 2.02 1.37 1.46 0 2.05-.65 2.05-1.46 0-1.07-1.18-1.25-2.57-1.51-1.88-.39-3.42-.92-3.42-2.94 0-2.25 1.89-3.18 3.99-3.18zm7.43-2.33h2.12v2.58h2.31v1.7h-2.31v5.48c0 1.12.42 1.44 1.58 1.44l.85-.04v1.66a12.6 12.6 0 0 1-1.39.09c-2.51 0-3.19-.9-3.19-2.97v-5.65h-1.57v-1.7h1.6v-2.58zm6.57 9.83c0-1.83 1.27-3.06 3.65-3.06h2.61v-.97c0-1.18-.75-1.74-1.94-1.74s-1.7.49-1.87 1.17h-2.06c.13-1.73 1.43-2.89 3.99-2.89 2.21 0 4.03.92 4.03 3.49v6.99h-2.06v-1.34h-.1c-.46.79-1.36 1.49-2.88 1.49-2 0-3.38-1.23-3.38-3.15zm6.26-.49v-1.11h-2.27c-1.26 0-1.82.63-1.82 1.49 0 1.07.9 1.58 1.88 1.58 1.23 0 2.21-.84 2.21-1.96zm7.61 1.93h-.12v1.55h-2.11V26.83h2.17v5.35h.12c.32-1.07 1.52-1.78 3.01-1.78 2.41 0 3.9 1.7 3.9 4.5v1.59c0 2.8-1.5 4.51-3.95 4.51-1.45 0-2.58-.63-3.02-1.7zm4.76-3.09v-1c0-1.93-.87-3.05-2.37-3.05s-2.44 1.1-2.44 2.86v1.49c0 1.58 1.03 2.7 2.48 2.7s2.33-1.1 2.33-3.01zm11.43-4.13h.11v-5.26h2.17v14.03h-2.11v-1.65h-.11c-.31 1.04-1.55 1.79-3.06 1.79-2.37 0-3.92-1.69-3.92-4.41v-1.77c0-2.72 1.57-4.41 3.95-4.41 1.46 0 2.57.64 2.97 1.69zm-4.71 3.04v1.13c0 1.88.91 2.96 2.39 2.96s2.42-1.06 2.42-2.82v-1.56c0-1.59-1.04-2.66-2.47-2.66s-2.34 1.07-2.34 2.95zm11.57-9.02c.86 0 1.46.55 1.46 1.33s-.6 1.31-1.46 1.31-1.42-.54-1.42-1.31.6-1.33 1.42-1.33zm-1.06 4.43h2.16v10.32h-2.16V30.54zm6.54 1.77h-1.71v-1.7h1.71v-1.03c0-2.01.97-2.91 3.39-2.91.49 0 1.05.05 1.31.08v1.62a11.88 11.88 0 0 0-.94-.04c-1.14 0-1.63.33-1.63 1.43v.85h2.35v1.7h-2.32v8.55h-2.16v-8.55zm8.02 0h-1.71v-1.7h1.71v-1.03c0-2.01.97-2.91 3.39-2.91.49 0 1.05.05 1.31.08v1.62a11.88 11.88 0 0 0-.94-.04c-1.14 0-1.63.33-1.63 1.43v.85h2.35v1.7h-2.32v8.55h-2.16v-8.55z" fill="#0a79c4"/><path d="M68.21 52.66l6.03-3.11v.9L69.16 53v.03l5.08 2.55v.9l-6.03-3.11v-.7zm11.7-2.48v2.54h2.99v-2.54h1.13v6.29H82.9v-2.85h-2.99v2.85h-1.13v-6.29h1.13zm9.48 6.29l-.09-.79h-.04c-.35.49-1.03.94-1.92.94-1.27 0-1.92-.9-1.92-1.81 0-1.52 1.35-2.35 3.78-2.34v-.13c0-.52-.14-1.46-1.43-1.46-.58 0-1.2.18-1.64.47l-.26-.75c.52-.34 1.27-.56 2.07-.56 1.92 0 2.39 1.31 2.39 2.57v2.35c0 .55.03 1.08.1 1.51h-1.04zm-.17-3.21c-1.25-.03-2.67.19-2.67 1.42 0 .74.49 1.09 1.08 1.09.82 0 1.34-.52 1.52-1.05a1.18 1.18 0 0 0 .06-.36v-1.09zm3.48-3.08l2.08 2.74h.23v-2.74h1.09v2.74h.22l2.08-2.74h1.31l-2.48 2.86c.95.1 1.51.66 1.89 1.66l.69 1.77h-1.14c-.21-.38-.39-.9-.57-1.44-.39-1.03-.98-1.34-1.79-1.34h-.19v2.78h-1.09v-2.78h-.21c-.88 0-1.42.33-1.81 1.35l-.6 1.43h-1.1c.26-.51.47-1.17.69-1.75.39-1.01.95-1.57 1.9-1.68l-2.5-2.86h1.31zm8.2 0h1.4l1.14 3.17.57 1.73h.03l.74-2.16 1.01-2.74h1.42l.44 6.29h-1.09l-.14-3-.12-2.25h-.04l-.69 2.04-1.21 3.17h-.83l-1.12-3.11-.62-2.09h-.05l-.1 2.26-.16 2.98h-1.05l.47-6.29zm9.29 0v2.65l-.06 2.52h.04l1.01-1.92 1.96-3.25h1.34v6.29h-1.09V53.8l.08-2.57h-.04l-1.04 1.95-1.96 3.29h-1.31v-6.29h1.08zm13.39 6.06c-.3.16-.96.36-1.81.36-1.9 0-3.13-1.29-3.13-3.21s1.33-3.34 3.38-3.34c.68 0 1.27.17 1.59.33l-.26.88c-.27-.16-.7-.3-1.33-.3-1.44 0-2.22 1.07-2.22 2.38 0 1.46.94 2.35 2.18 2.35.65 0 1.08-.17 1.4-.31l.19.86zm2.43-6.06v2.65h1.08c.19-1.66 1.29-2.79 2.79-2.79 1.64 0 2.76 1.3 2.76 3.24 0 2.04-1.25 3.34-2.83 3.34s-2.61-1.12-2.74-2.91h-1.05v2.77h-1.12v-6.29h1.12zm5.49 3.12c0-1.18-.53-2.4-1.65-2.4s-1.69 1.2-1.69 2.47.56 2.4 1.66 2.4 1.68-1.27 1.68-2.47zm7.37-3.12v5.43h.65l-.06 2.86h-.9l-.05-2h-4.35l-.05 2h-.9l-.05-2.85h.53c.27-.42.48-.84.62-1.3.25-.78.36-1.62.36-2.51v-1.64h4.2zm-3.19 1.91c0 .83-.12 1.64-.33 2.34-.13.43-.31.82-.51 1.17h2.9v-4.55h-2.07v1.04zm8.68 4.38l-.09-.79h-.04c-.35.49-1.03.94-1.92.94-1.27 0-1.92-.9-1.92-1.81 0-1.52 1.35-2.35 3.78-2.34v-.13c0-.52-.14-1.46-1.43-1.46-.58 0-1.2.18-1.64.47l-.26-.75c.52-.34 1.27-.56 2.07-.56 1.92 0 2.39 1.31 2.39 2.57v2.35c0 .55.03 1.08.1 1.51h-1.04zm-.17-3.21c-1.25-.03-2.67.19-2.67 1.42 0 .74.49 1.09 1.08 1.09.82 0 1.34-.52 1.52-1.05a1.18 1.18 0 0 0 .06-.36v-1.09zm2.21 4.81c.29-.77.64-2.16.78-3.11l1.27-.13c-.3 1.1-.87 2.55-1.24 3.16l-.82.08zm7.23-7.89v2.07c0 .79.3 1.34 1.3 1.34.49 0 1-.18 1.35-.44v-2.96h1.13v6.29h-1.13v-2.52h-.03c-.43.29-1.1.48-1.7.48-1.2 0-2.07-.61-2.07-2.05v-2.2h1.14zm9.87 0v.91h-1.96v5.38h-1.13v-5.38h-1.96v-.91h5.06zm6.53 3.09c0 2.33-1.61 3.34-3.13 3.34-1.7 0-3.02-1.25-3.02-3.24 0-2.11 1.38-3.34 3.12-3.34s3.03 1.31 3.03 3.24zm-4.99.06c0 1.38.79 2.42 1.91 2.42s1.91-1.03 1.91-2.44c0-1.07-.53-2.42-1.89-2.42s-1.94 1.25-1.94 2.44zm13.95-5.29c-.32.12-.9.22-1.31.29-1.01.16-1.75.49-2.24 1.18-.4.57-.64 1.42-.69 2.08h.04c.4-.91 1.29-1.42 2.18-1.42 1.55 0 2.68 1.11 2.68 3.11s-1.07 3.33-2.91 3.33c-2.21 0-2.94-2.12-2.94-4.21 0-1.43.3-2.6.98-3.48.61-.87 1.48-1.27 2.7-1.48.51-.08 1.13-.18 1.56-.34l-.05.95zm-2.25 2.98c-.68 0-1.16.35-1.42.86-.21.38-.31.83-.31 1.34 0 1.04.51 2.54 1.76 2.54s1.73-1.22 1.73-2.38c0-1.03-.4-2.35-1.76-2.35zm5.46-.85v2.15c.25-.05.61-.08 1.03-.08 1.35 0 2.72.56 2.72 2.11 0 .66-.25 1.12-.65 1.46-.69.58-1.7.73-2.53.73-.64 0-1.22-.04-1.69-.09v-6.27h1.13zm0 5.5a5.72 5.72 0 0 0 .79.05c.87 0 1.82-.36 1.82-1.34s-.91-1.33-1.77-1.33c-.32 0-.61.03-.84.06v2.55zm5.67-5.5v6.29h-1.13v-6.29h1.13zm9.8 0v6.29h-1.14v-5.38h-2.92v5.38h-1.13v-6.29h5.2zm7.55 3.09c0 2.33-1.61 3.34-3.13 3.34-1.7 0-3.02-1.25-3.02-3.24 0-2.11 1.38-3.34 3.12-3.34s3.03 1.31 3.03 3.24zm-4.99.06c0 1.38.79 2.42 1.91 2.42s1.91-1.03 1.91-2.44c0-1.07-.53-2.42-1.88-2.42s-1.94 1.25-1.94 2.44zm11.22-3.16v5.43h.65l-.06 2.86h-.9l-.05-2h-4.36l-.05 2h-.9l-.05-2.85h.53c.27-.42.48-.84.62-1.3.25-.78.36-1.62.36-2.51v-1.64h4.2zm-3.19 1.91c0 .83-.12 1.64-.33 2.34-.13.43-.31.82-.51 1.17h2.9v-4.55h-2.07v1.04zm5.79 1.44c.03 1.55 1.01 2.18 2.16 2.18.82 0 1.31-.14 1.74-.33l.19.82c-.4.18-1.09.39-2.09.39-1.94 0-3.09-1.27-3.09-3.17s1.12-3.39 2.95-3.39c2.05 0 2.6 1.81 2.6 2.96 0 .23-.03.42-.04.53h-4.42zm3.35-.82c.01-.73-.3-1.86-1.59-1.86-1.16 0-1.66 1.07-1.75 1.86h3.34zm7.3-2.54v6.29h-1.13v-5.4h-2.16v1.64c0 1.77-.17 2.95-.99 3.48-.31.25-.66.39-1.25.39l-.12-.9c.22-.04.47-.13.62-.26.58-.43.65-1.31.65-2.72v-2.54h4.37zm2.92 0v2.65l-.06 2.52h.04l1.01-1.92 1.96-3.25h1.34v6.29h-1.09v-2.67l.08-2.57h-.04l-1.04 1.95-1.96 3.29h-1.31v-6.29h1.08zm10.36 0v.91h-1.96v5.38h-1.13v-5.38h-1.96v-.91h5.06zm2.11 0v2.13c.26-.05.7-.06 1.04-.06 1.42 0 2.91.44 2.91 2.12 0 .65-.26 1.1-.66 1.44-.69.58-1.81.73-2.73.73-.64 0-1.22-.04-1.69-.09v-6.27h1.13zm0 5.5c.22.03.47.05.84.05.86 0 1.96-.29 1.96-1.34s-1.14-1.33-1.99-1.33c-.3 0-.56.03-.82.06v2.55zm9.85.56c-.3.16-.96.36-1.81.36-1.9 0-3.13-1.29-3.13-3.21s1.33-3.34 3.38-3.34c.68 0 1.27.17 1.59.33l-.26.88c-.27-.16-.7-.3-1.33-.3-1.44 0-2.22 1.07-2.22 2.38 0 1.46.94 2.35 2.18 2.35.65 0 1.08-.17 1.4-.31l.19.86zm6.04.23h-1.13V53.8H254c-.48 0-.81.13-1.05.35-.47.38-.64 1.16-.88 1.77a5.04 5.04 0 0 1-.26.52h-1.22c.14-.21.27-.44.39-.71.27-.61.43-1.43.99-1.9.19-.17.43-.31.72-.36v-.04c-.82-.09-1.66-.6-1.66-1.56 0-.65.35-1.09.83-1.37.52-.3 1.29-.43 2.11-.43a16.62 16.62 0 0 1 2.03.13v6.24zm-1.13-5.54a6.41 6.41 0 0 0-.95-.06c-.78 0-1.7.22-1.7 1.09 0 .81 1 1.09 1.68 1.09h.98V50.9zm6.8-.75v2.65l-.06 2.52h.04l1.01-1.92 1.96-3.25h1.34v6.29h-1.09v-2.67l.08-2.57h-.04l-1.04 1.95-1.96 3.29h-1.31v-6.29h1.08zm10.92 0v6.29h-1.13v-5.4h-2.16v1.64c0 1.77-.17 2.95-.99 3.48-.31.25-.66.39-1.25.39l-.12-.9c.22-.04.47-.13.62-.26.58-.43.65-1.31.65-2.72v-2.54h4.37zm2.92 0v2.65l-.06 2.52h.04l1.01-1.92 1.96-3.25h1.34v6.29h-1.09v-2.67l.08-2.57h-.04l-1.04 1.95-1.96 3.29h-1.31v-6.29h1.08zm10.01 0v2.54h2.99v-2.54h1.13v6.29h-1.13v-2.85h-2.99v2.85h-1.13v-6.29h1.13zm9.48 6.29l-.09-.79h-.04c-.35.49-1.03.94-1.92.94-1.27 0-1.92-.9-1.92-1.81 0-1.52 1.35-2.35 3.78-2.34v-.13c0-.52-.14-1.46-1.43-1.46-.58 0-1.2.18-1.64.47l-.26-.75c.52-.34 1.27-.56 2.07-.56 1.92 0 2.39 1.31 2.39 2.57v2.35c0 .55.03 1.08.1 1.51h-1.04zm-.17-3.21c-1.25-.03-2.67.19-2.67 1.42 0 .74.49 1.09 1.08 1.09.82 0 1.34-.52 1.52-1.05a1.18 1.18 0 0 0 .06-.36v-1.09zm8.12-3.08v6.29h-1.14v-5.38h-2.92v5.38h-1.13v-6.29h5.2zm2.91 0v2.65l-.06 2.52h.04l1.01-1.92 1.96-3.25h1.34v6.29h-1.09v-2.67l.08-2.57h-.04l-1.04 1.95-1.96 3.29h-1.31v-6.29h1.08zm10.63 6.06c-.3.16-.96.36-1.81.36-1.9 0-3.13-1.29-3.13-3.21s1.33-3.34 3.38-3.34c.68 0 1.27.17 1.59.33l-.26.88c-.27-.16-.7-.3-1.33-.3-1.44 0-2.22 1.07-2.22 2.38 0 1.46.94 2.35 2.18 2.35.65 0 1.08-.17 1.4-.31l.19.86zm4.86.23l-.09-.79h-.04c-.35.49-1.03.94-1.92.94-1.27 0-1.92-.9-1.92-1.81 0-1.52 1.35-2.35 3.78-2.34v-.13c0-.52-.14-1.46-1.43-1.46-.58 0-1.2.18-1.64.47l-.26-.75c.52-.34 1.27-.56 2.07-.56 1.92 0 2.39 1.31 2.39 2.57v2.35c0 .55.03 1.08.1 1.51h-1.04zm-.17-3.21c-1.25-.03-2.67.19-2.67 1.42 0 .74.49 1.09 1.08 1.09.82 0 1.34-.52 1.52-1.05a1.18 1.18 0 0 0 .06-.36v-1.09zm7.11-3.08v.91h-1.96v5.38h-1.13v-5.38h-1.96v-.91h5.06zm2.11 0v2.13c.26-.05.7-.06 1.04-.06 1.42 0 2.91.44 2.91 2.12 0 .65-.26 1.1-.66 1.44-.69.58-1.81.73-2.73.73-.64 0-1.22-.04-1.69-.09v-6.27h1.13zm0 5.5c.22.03.47.05.84.05.86 0 1.96-.29 1.96-1.34s-1.14-1.33-1.99-1.33c-.3 0-.56.03-.82.06v2.55zm14.07-2.3l-6.03 3.09v-.9l5.12-2.55v-.03l-5.12-2.55v-.9l6.03 3.09v.73z"/></svg>