<?xml version="1.0" encoding="UTF-8"?><svg id="a" xmlns="http://www.w3.org/2000/svg" width="117" height="20" xmlns:xlink="http://www.w3.org/1999/xlink" viewBox="0 0 117 20"><defs><style>.d{fill:#555;}.e{fill:#fff;}.f{fill:#0066da;}.g{fill:#ffba00;}.h{fill:#00ac47;}.i{clip-path:url(#b);}.j{fill:none;}.k{fill:url(#c);}.l{fill:#007ec6;}.m{fill:#2684fc;}.n{fill:#00832d;}.o{fill:#ea4335;}</style><clipPath id="b"><rect class="j" y="0" width="117" height="20" rx="3" ry="3"/></clipPath><linearGradient id="c" x1="-236.46" y1="410.34" x2="-236.46" y2="409.34" gradientTransform="translate(27724 8206.8) scale(117 -20)" gradientUnits="userSpaceOnUse"><stop offset="0" stop-color="#bbb" stop-opacity=".1"/><stop offset="1" stop-color="#000" stop-opacity=".1"/></linearGradient></defs><g class="i"><g><path class="d" d="M0,0H30V20H0V0Z"/><path class="l" d="M30,0H117V20H30V0Z"/><path class="k" d="M0,0H117V20H0V0Z"/></g></g><g><path class="f" d="M6.3,16.1l.84,1.46c.18,.31,.43,.55,.72,.72l3.01-5.21H4.86c0,.34,.09,.68,.26,.99l1.18,2.05Z"/><path class="h" d="M14.42,6.93L11.41,1.72c-.3,.18-.55,.42-.72,.72L5.12,12.08c-.17,.3-.26,.64-.26,.99h6.02l3.54-6.13Z"/><path class="o" d="M20.97,18.28c.3-.18,.55-.42,.72-.72l.35-.6,1.68-2.9c.18-.31,.26-.65,.26-.99h-6.02l1.28,2.52,1.73,2.69Z"/><path class="n" d="M14.42,6.93l3.01-5.21c-.3-.18-.64-.26-.99-.26h-4.05c-.35,0-.69,.1-.99,.26l3.01,5.21Z"/><path class="m" d="M17.96,13.07h-7.08l-3.01,5.21c.3,.18,.64,.26,.99,.26h11.13c.35,0,.69-.1,.99-.26l-3.01-5.21Z"/><path class="g" d="M20.94,7.26l-2.78-4.82c-.18-.31-.43-.55-.72-.72l-3.01,5.21,3.54,6.13h6.01c0-.34-.09-.68-.26-.99l-2.77-4.82Z"/></g><path d="M37.87,11.01c0,.5-.05,.95-.16,1.35s-.28,.74-.5,1.02-.52,.5-.88,.65-.78,.23-1.28,.23-.93-.08-1.29-.23-.65-.37-.88-.65-.4-.62-.5-1.02-.16-.85-.16-1.34,.05-.96,.16-1.36,.28-.75,.51-1.03,.52-.5,.88-.65,.79-.23,1.29-.23,.92,.08,1.28,.23,.65,.37,.88,.65,.4,.63,.5,1.03,.16,.86,.16,1.36Zm-1.31,0c0-.73-.12-1.27-.35-1.63s-.62-.53-1.16-.53-.92,.18-1.17,.53-.37,.9-.37,1.63,.12,1.25,.36,1.61,.63,.54,1.17,.54,.91-.18,1.15-.54,.36-.9,.36-1.61Zm8.31-.06c0,.43-.05,.84-.14,1.24-.09,.4-.24,.75-.44,1.05s-.46,.55-.77,.73-.69,.27-1.12,.27c-.33,0-.64-.06-.93-.17s-.55-.28-.8-.49v2.79h-1.26V7.92h1.2v.62c.26-.23,.55-.42,.86-.57s.67-.22,1.05-.22c.41,0,.76,.08,1.06,.23s.54,.38,.73,.66,.34,.62,.43,1.01,.14,.83,.14,1.3Zm-1.3,.02c0-.69-.11-1.22-.34-1.58s-.57-.54-1.01-.54c-.14,0-.28,.02-.42,.06s-.28,.09-.41,.15-.26,.14-.38,.22-.23,.17-.33,.27v2.98c.09,.08,.2,.16,.31,.23s.23,.14,.35,.19,.25,.1,.39,.13,.27,.05,.4,.05c.2,0,.38-.04,.56-.12s.33-.21,.46-.38,.24-.4,.31-.67c.08-.27,.12-.6,.12-.98Zm3.82,.29c0,.31,.04,.58,.1,.82,.06,.24,.16,.43,.28,.59s.3,.28,.5,.36,.46,.12,.76,.12c.28,0,.53-.05,.75-.14s.42-.26,.6-.49l.97,.66c-.12,.18-.25,.33-.39,.46s-.31,.24-.5,.33-.41,.16-.65,.21-.52,.07-.83,.07c-.98,0-1.7-.27-2.17-.81s-.7-1.34-.7-2.39c0-.5,.05-.95,.15-1.35s.26-.75,.48-1.04,.51-.51,.86-.67,.79-.24,1.31-.24c.46,0,.85,.07,1.17,.21s.58,.33,.79,.58,.35,.55,.45,.9,.14,.74,.14,1.17v.66h-4.04Zm2.79-.93c0-.51-.11-.9-.32-1.17s-.55-.4-1.01-.4c-.23,0-.43,.03-.6,.1s-.3,.17-.42,.3-.2,.3-.27,.49-.12,.42-.15,.67h2.77Zm6.64,3.73v-3.5c0-.3,0-.56-.03-.78s-.06-.39-.13-.52-.16-.23-.27-.29-.27-.09-.47-.09c-.13,0-.27,.03-.41,.08s-.29,.12-.45,.21-.3,.19-.45,.3-.3,.24-.44,.36v4.23h-1.26V7.92h1.26v.86c.13-.13,.28-.26,.45-.39s.34-.24,.52-.33,.37-.17,.56-.23,.39-.08,.58-.08c.34,0,.63,.05,.86,.15s.42,.24,.55,.43,.24,.42,.3,.7,.09,.59,.09,.95v4.1h-1.26Zm11.46-3.06c0,.5-.05,.95-.16,1.35s-.28,.74-.5,1.02-.52,.5-.88,.65-.78,.23-1.28,.23-.93-.08-1.29-.23-.65-.37-.88-.65-.4-.62-.5-1.02-.16-.85-.16-1.34,.05-.96,.16-1.36,.28-.75,.51-1.03,.52-.5,.88-.65,.79-.23,1.29-.23,.92,.08,1.28,.23,.65,.37,.88,.65,.4,.63,.5,1.03,.16,.86,.16,1.36Zm-1.31,0c0-.73-.12-1.27-.35-1.63s-.62-.53-1.16-.53-.92,.18-1.17,.53-.37,.9-.37,1.63,.12,1.25,.36,1.61,.63,.54,1.17,.54,.91-.18,1.15-.54,.36-.9,.36-1.61Zm6.76,3.06v-3.5c0-.3,0-.56-.03-.78s-.06-.39-.13-.52-.16-.23-.27-.29-.27-.09-.47-.09c-.13,0-.27,.03-.41,.08s-.29,.12-.45,.21-.3,.19-.45,.3-.3,.24-.44,.36v4.23h-1.26V7.92h1.26v.86c.13-.13,.28-.26,.45-.39s.34-.24,.52-.33,.37-.17,.56-.23,.39-.08,.58-.08c.34,0,.63,.05,.86,.15s.42,.24,.55,.43,.24,.42,.3,.7,.09,.59,.09,.95v4.1h-1.26Zm11.46-5.99c-.2-.34-.45-.61-.76-.8s-.71-.28-1.2-.28c-.34,0-.65,.05-.93,.16s-.51,.28-.7,.52-.34,.56-.45,.95-.16,.86-.16,1.43c0,.49,.04,.92,.13,1.29s.22,.68,.4,.93,.42,.43,.7,.56,.63,.19,1.03,.19c.3,0,.58-.03,.84-.1s.52-.16,.79-.28v-1.59h-1.78v-1.22h3.14v3.54c-.41,.27-.86,.48-1.36,.63s-1.03,.23-1.62,.23c-1.27,0-2.2-.35-2.79-1.04s-.9-1.74-.9-3.14c0-.69,.07-1.3,.21-1.83s.36-.98,.66-1.34,.68-.64,1.14-.82,1-.28,1.63-.28c.43,0,.8,.04,1.13,.12s.61,.19,.86,.33,.45,.29,.62,.47,.31,.37,.42,.57l-1.08,.8Zm8.99,1.93c0,.8-.08,1.46-.25,1.98-.16,.52-.41,.94-.74,1.25s-.73,.52-1.21,.64-1.04,.18-1.67,.18h-2.27V5.96h2.24c.65,0,1.22,.07,1.7,.21s.89,.36,1.22,.68,.57,.73,.73,1.25,.24,1.16,.24,1.92Zm-1.43-.01c0-.55-.04-1-.13-1.36s-.23-.65-.43-.86-.46-.36-.79-.45-.73-.13-1.22-.13h-.77v5.61h.77c.49,0,.9-.05,1.23-.14s.59-.25,.79-.46,.34-.51,.42-.87,.12-.81,.12-1.35Zm6.47-.84c-.06-.02-.14-.04-.24-.06s-.2-.03-.31-.03c-.17,0-.33,.02-.49,.07s-.3,.11-.44,.19-.27,.17-.4,.28-.26,.22-.38,.35v4.11h-1.26V7.92h1.26v.94c.13-.14,.27-.27,.41-.4s.29-.23,.44-.33,.32-.17,.48-.22,.35-.08,.53-.08c.14,0,.27,.01,.37,.03s.19,.05,.27,.09l-.25,1.21Zm2.7-2.85c0,.26-.06,.44-.18,.54s-.31,.15-.57,.15c-.28,0-.48-.06-.58-.18s-.16-.29-.16-.51c0-.24,.06-.42,.17-.52s.3-.16,.57-.16,.46,.05,.58,.16,.18,.28,.18,.53Zm-1.38,7.76V7.92h1.26v6.15h-1.26Zm5.77,0h-1.2l-2.16-6.15h1.31l1.49,4.44,1.46-4.44h1.28l-2.19,6.15Zm4.27-2.81c0,.31,.04,.58,.1,.82,.06,.24,.16,.43,.28,.59s.3,.28,.5,.36,.46,.12,.76,.12c.28,0,.53-.05,.75-.14s.42-.26,.6-.49l.97,.66c-.12,.18-.25,.33-.39,.46s-.31,.24-.5,.33-.41,.16-.65,.21-.52,.07-.83,.07c-.98,0-1.7-.27-2.17-.81s-.7-1.34-.7-2.39c0-.5,.05-.95,.15-1.35s.26-.75,.48-1.04,.51-.51,.86-.67,.79-.24,1.31-.24c.46,0,.85,.07,1.17,.21s.58,.33,.79,.58,.35,.55,.45,.9,.14,.74,.14,1.17v.66h-4.04Zm2.79-.93c0-.51-.11-.9-.32-1.17s-.55-.4-1.01-.4c-.23,0-.43,.03-.6,.1s-.3,.17-.42,.3-.2,.3-.27,.49-.12,.42-.15,.67h2.77Z"/><path class="e" d="M37.87,10.01c0,.5-.05,.95-.16,1.35s-.28,.74-.5,1.02-.52,.5-.88,.65-.78,.23-1.28,.23-.93-.08-1.29-.23-.65-.37-.88-.65-.4-.62-.5-1.02-.16-.85-.16-1.34,.05-.96,.16-1.36,.28-.75,.51-1.03,.52-.5,.88-.65,.79-.23,1.29-.23,.92,.08,1.28,.23,.65,.37,.88,.65,.4,.63,.5,1.03,.16,.86,.16,1.36Zm-1.31,0c0-.73-.12-1.27-.35-1.63s-.62-.53-1.16-.53-.92,.18-1.17,.53-.37,.9-.37,1.63,.12,1.25,.36,1.61,.63,.54,1.17,.54,.91-.18,1.15-.54,.36-.9,.36-1.61Zm8.31-.06c0,.43-.05,.84-.14,1.24-.09,.4-.24,.75-.44,1.05s-.46,.55-.77,.73-.69,.27-1.12,.27c-.33,0-.64-.06-.93-.17s-.55-.28-.8-.49v2.79h-1.26V6.92h1.2v.62c.26-.23,.55-.42,.86-.57s.67-.22,1.05-.22c.41,0,.76,.08,1.06,.23s.54,.38,.73,.66,.34,.62,.43,1.01,.14,.83,.14,1.3Zm-1.3,.02c0-.69-.11-1.22-.34-1.58s-.57-.54-1.01-.54c-.14,0-.28,.02-.42,.06s-.28,.09-.41,.15-.26,.14-.38,.22-.23,.17-.33,.27v2.98c.09,.08,.2,.16,.31,.23s.23,.14,.35,.19,.25,.1,.39,.13,.27,.05,.4,.05c.2,0,.38-.04,.56-.12s.33-.21,.46-.38,.24-.4,.31-.67c.08-.27,.12-.6,.12-.98Zm3.82,.29c0,.31,.04,.58,.1,.82,.06,.24,.16,.43,.28,.59s.3,.28,.5,.36,.46,.12,.76,.12c.28,0,.53-.05,.75-.14s.42-.26,.6-.49l.97,.66c-.12,.18-.25,.33-.39,.46s-.31,.24-.5,.33-.41,.16-.65,.21-.52,.07-.83,.07c-.98,0-1.7-.27-2.17-.81s-.7-1.34-.7-2.39c0-.5,.05-.95,.15-1.35s.26-.75,.48-1.04,.51-.51,.86-.67,.79-.24,1.31-.24c.46,0,.85,.07,1.17,.21s.58,.33,.79,.58,.35,.55,.45,.9,.14,.74,.14,1.17v.66h-4.04Zm2.79-.93c0-.51-.11-.9-.32-1.17s-.55-.4-1.01-.4c-.23,0-.43,.03-.6,.1s-.3,.17-.42,.3-.2,.3-.27,.49-.12,.42-.15,.67h2.77Zm6.64,3.73v-3.5c0-.3,0-.56-.03-.78s-.06-.39-.13-.52-.16-.23-.27-.29-.27-.09-.47-.09c-.13,0-.27,.03-.41,.08s-.29,.12-.45,.21-.3,.19-.45,.3-.3,.24-.44,.36v4.23h-1.26V6.92h1.26v.86c.13-.13,.28-.26,.45-.39s.34-.24,.52-.33,.37-.17,.56-.23,.39-.08,.58-.08c.34,0,.63,.05,.86,.15s.42,.24,.55,.43,.24,.42,.3,.7,.09,.59,.09,.95v4.1h-1.26Zm11.46-3.06c0,.5-.05,.95-.16,1.35s-.28,.74-.5,1.02-.52,.5-.88,.65-.78,.23-1.28,.23-.93-.08-1.29-.23-.65-.37-.88-.65-.4-.62-.5-1.02-.16-.85-.16-1.34,.05-.96,.16-1.36,.28-.75,.51-1.03,.52-.5,.88-.65,.79-.23,1.29-.23,.92,.08,1.28,.23,.65,.37,.88,.65,.4,.63,.5,1.03,.16,.86,.16,1.36Zm-1.31,0c0-.73-.12-1.27-.35-1.63s-.62-.53-1.16-.53-.92,.18-1.17,.53-.37,.9-.37,1.63,.12,1.25,.36,1.61,.63,.54,1.17,.54,.91-.18,1.15-.54,.36-.9,.36-1.61Zm6.76,3.06v-3.5c0-.3,0-.56-.03-.78s-.06-.39-.13-.52-.16-.23-.27-.29-.27-.09-.47-.09c-.13,0-.27,.03-.41,.08s-.29,.12-.45,.21-.3,.19-.45,.3-.3,.24-.44,.36v4.23h-1.26V6.92h1.26v.86c.13-.13,.28-.26,.45-.39s.34-.24,.52-.33,.37-.17,.56-.23,.39-.08,.58-.08c.34,0,.63,.05,.86,.15s.42,.24,.55,.43,.24,.42,.3,.7,.09,.59,.09,.95v4.1h-1.26Zm11.46-5.99c-.2-.34-.45-.61-.76-.8s-.71-.28-1.2-.28c-.34,0-.65,.05-.93,.16s-.51,.28-.7,.52-.34,.56-.45,.95-.16,.86-.16,1.43c0,.49,.04,.92,.13,1.29s.22,.68,.4,.93,.42,.43,.7,.56,.63,.19,1.03,.19c.3,0,.58-.03,.84-.1s.52-.16,.79-.28v-1.59h-1.78v-1.22h3.14v3.54c-.41,.27-.86,.48-1.36,.63s-1.03,.23-1.62,.23c-1.27,0-2.2-.35-2.79-1.04s-.9-1.74-.9-3.14c0-.69,.07-1.3,.21-1.83s.36-.98,.66-1.34,.68-.64,1.14-.82,1-.28,1.63-.28c.43,0,.8,.04,1.13,.12s.61,.19,.86,.33,.45,.29,.62,.47,.31,.37,.42,.57l-1.08,.8Zm8.99,1.93c0,.8-.08,1.46-.25,1.98-.16,.52-.41,.94-.74,1.25s-.73,.52-1.21,.64-1.04,.18-1.67,.18h-2.27V4.96h2.24c.65,0,1.22,.07,1.7,.21s.89,.36,1.22,.68,.57,.73,.73,1.25,.24,1.16,.24,1.92Zm-1.43-.01c0-.55-.04-1-.13-1.36s-.23-.65-.43-.86-.46-.36-.79-.45-.73-.13-1.22-.13h-.77v5.61h.77c.49,0,.9-.05,1.23-.14s.59-.25,.79-.46,.34-.51,.42-.87,.12-.81,.12-1.35Zm6.47-.84c-.06-.02-.14-.04-.24-.06s-.2-.03-.31-.03c-.17,0-.33,.02-.49,.07s-.3,.11-.44,.19-.27,.17-.4,.28-.26,.22-.38,.35v4.11h-1.26V6.92h1.26v.94c.13-.14,.27-.27,.41-.4s.29-.23,.44-.33,.32-.17,.48-.22,.35-.08,.53-.08c.14,0,.27,.01,.37,.03s.19,.05,.27,.09l-.25,1.21Zm2.7-2.85c0,.26-.06,.44-.18,.54s-.31,.15-.57,.15c-.28,0-.48-.06-.58-.18s-.16-.29-.16-.51c0-.24,.06-.42,.17-.52s.3-.16,.57-.16,.46,.05,.58,.16,.18,.28,.18,.53Zm-1.38,7.76V6.92h1.26v6.15h-1.26Zm5.77,0h-1.2l-2.16-6.15h1.31l1.49,4.44,1.46-4.44h1.28l-2.19,6.15Zm4.27-2.81c0,.31,.04,.58,.1,.82,.06,.24,.16,.43,.28,.59s.3,.28,.5,.36,.46,.12,.76,.12c.28,0,.53-.05,.75-.14s.42-.26,.6-.49l.97,.66c-.12,.18-.25,.33-.39,.46s-.31,.24-.5,.33-.41,.16-.65,.21-.52,.07-.83,.07c-.98,0-1.7-.27-2.17-.81s-.7-1.34-.7-2.39c0-.5,.05-.95,.15-1.35s.26-.75,.48-1.04,.51-.51,.86-.67,.79-.24,1.31-.24c.46,0,.85,.07,1.17,.21s.58,.33,.79,.58,.35,.55,.45,.9,.14,.74,.14,1.17v.66h-4.04Zm2.79-.93c0-.51-.11-.9-.32-1.17s-.55-.4-1.01-.4c-.23,0-.43,.03-.6,.1s-.3,.17-.42,.3-.2,.3-.27,.49-.12,.42-.15,.67h2.77Z"/></svg>