<?xml version="1.0" encoding="UTF-8"?>
<svg id="a" data-name="Capa 1" xmlns="http://www.w3.org/2000/svg" viewBox="0 0 55.54 55.54">
  <defs>
    <style>
      .b {
        fill: #37991b;
      }

      .c {
        fill: #e2b963;
      }

      .d {
        fill: #036118;
      }

      .e {
        fill: #bc813c;
      }

      .f {
        fill: #686868;
      }
    </style>
  </defs>
  <path class="d" d="m2.87,14.35c-.56,0-1.01.45-1.01,1.01v12.99c1.6.41,2.78,1.86,2.78,3.59s-1.18,3.17-2.78,3.59v1.04h51.84v-1.04c-1.6-.41-2.78-1.86-2.78-3.59s1.18-3.17,2.78-3.59v-12.99c0-.56-.46-1.01-1.01-1.01"/>
  <path d="m.19,14.35C.07,14.66,0,15,0,15.36v14.72h.93c1.02,0,1.85.83,1.85,1.85s-.83,1.85-1.85,1.85H0v9.26h4.63v-1.85h46.28v1.85h4.63v-9.26h-.93c-.58,0-1.1-.27-1.43-.68v-2.34c.34-.42.86-.68,1.43-.68h.93v-14.72c0-1.58-1.29-2.87-2.87-2.87H2.87c-1.22,0-2.27.77-2.68,1.85Zm10,0h42.49c.18,0,.36.05.51.14v14.04c-1.33.56-2.27,1.88-2.27,3.41s.94,2.85,2.27,3.41v1.22H1.85v-1.04c1.6-.41,2.78-1.86,2.78-3.59s-1.18-3.17-2.78-3.59v-12.99c0-.56.45-1.01,1.01-1.01h7.32Z"/>
  <path class="c" d="m4.44,18.91c.14.58.6,1.04,1.18,1.18.56.14,1.14-.02,1.54-.43.31-.31.47-.72.47-1.15,0-.13-.02-.26-.05-.4-.14-.58-.6-1.04-1.18-1.18-.56-.14-1.14.02-1.54.43-.4.4-.56.98-.43,1.54Zm44.68,1.18c.56.14,1.14-.02,1.54-.43.31-.31.47-.72.47-1.15,0-.13-.02-.26-.05-.4-.14-.58-.6-1.04-1.18-1.18-.56-.14-1.14.02-1.54.43-.4.4-.56.98-.43,1.54.14.58.6,1.04,1.18,1.18Z"/>
  <polygon class="b" points="1.85 38.41 53.69 38.41 53.69 41.19 52.76 41.19 52.76 39.34 2.78 39.34 2.78 41.19 1.85 41.19 1.85 38.41"/>
  <g>
    <path d="m7.41,25.46h-1.85v1.85h1.85v.93h-1.85v1.85h1.85v.93h-1.85v1.85h1.85v1.85h7.4v-1.85h1.85v-1.85h-1.85v-.93h1.85v-1.85h-1.85v-.93h1.85v-1.85h-1.85v-1.85h-7.4v1.85Zm5.55,0v7.4h-3.7v-7.4h3.7Zm27.77,0h-1.85v1.85h1.85v.93h-1.85v1.85h1.85v.93h-1.85v1.85h1.85v1.85h7.4v-1.85h1.85v-1.85h-1.85v-.93h1.85v-1.85h-1.85v-.93h1.85v-1.85h-1.85v-1.85h-7.4v1.85Zm5.55,0v7.4h-3.7v-7.4h3.7Zm-22.22,0h-1.85v1.85h1.85v.93h-1.85v1.85h1.85v.93h-1.85v1.85h1.85v1.85h7.4v-1.85h1.85v-1.85h-1.85v-.93h1.85v-1.85h-1.85v-.93h1.85v-1.85h-1.85v-1.85h-7.4v1.85Zm5.55,0v7.4h-3.7v-7.4h3.7Z"/>
    <path class="f" d="m42.58,25.46h3.7v7.4h-3.7v-7.4Zm-16.66,7.4h3.7v-7.4h-3.7v7.4Zm-16.66,0h3.7v-7.4h-3.7v7.4Z"/>
  </g>
  <path class="e" d="m37.95,18.98v-4.63h1.85v4.63h-1.85Zm-.93,0v-4.63h-1.85v4.63h1.85Zm5.55,0v-4.63h-1.85v4.63h1.85Zm-8.33,0v-4.63h-1.85v4.63h1.85Zm11.11,0v-4.63h-1.85v4.63h1.85Zm-27.77,0v-4.63h-1.85v4.63h1.85Zm-2.78,0v-4.63h-1.85v4.63h1.85Zm16.66,0v-4.63h-1.85v4.63h1.85Zm-19.44,0v-4.63h-1.85v4.63h1.85Zm13.88,0v-4.63h-1.85v4.63h1.85Zm2.78,0v-4.63h-1.85v4.63h1.85Zm-5.55,0v-4.63h-1.85v4.63h1.85Zm-2.78,0v-4.63h-1.85v4.63h1.85Z"/>
</svg>