<?xml version="1.0" encoding="UTF-8"?><svg id="a" xmlns="http://www.w3.org/2000/svg" width="117" height="20" xmlns:xlink="http://www.w3.org/1999/xlink" viewBox="0 0 117 20"><defs><style>.d{fill:#fff;}.e{fill:#554596;}.f{clip-path:url(#b);}.g{fill:#3cf;}.h{fill:none;}.i{fill:url(#c);}.j{fill:#63c;}.k{fill:#30c;}</style><clipPath id="b"><rect class="h" y="0" width="117" height="20" rx="3" ry="3"/></clipPath><linearGradient id="c" x1="-236.46" y1="410.34" x2="-236.46" y2="409.34" gradientTransform="translate(27724 8206.8) scale(117 -20)" gradientUnits="userSpaceOnUse"><stop offset="0" stop-color="#bbb" stop-opacity=".1"/><stop offset="1" stop-color="#000" stop-opacity=".1"/></linearGradient></defs><g class="f"><path class="g" d="M0,0H30V20H0V0Z"/><path class="e" d="M30,0H117V20H30V0Z"/><path class="i" d="M0,0H117V20H0V0Z"/></g><path d="M49.11,13.17c0,.66-.24,1.17-.72,1.52-.48,.35-1.17,.53-2.06,.53s-1.62-.14-2.17-.41v-1.24c.79,.37,1.53,.55,2.22,.55,.88,0,1.32-.27,1.32-.8,0-.17-.05-.31-.15-.43-.1-.11-.26-.23-.48-.35-.22-.12-.53-.26-.93-.42-.78-.3-1.3-.6-1.58-.9-.27-.3-.41-.69-.41-1.17,0-.58,.23-1.03,.7-1.35,.47-.32,1.1-.48,1.9-.48s1.54,.16,2.25,.48l-.46,1.08c-.73-.3-1.34-.45-1.84-.45-.76,0-1.14,.22-1.14,.65,0,.21,.1,.39,.3,.54s.63,.35,1.29,.6c.56,.22,.96,.41,1.21,.59,.25,.18,.44,.39,.56,.62s.18,.51,.18,.84Zm7.49,1.92h-1.44v-4.15c0-.52-.1-.91-.31-1.17-.21-.26-.54-.38-1-.38-.6,0-1.04,.18-1.33,.54-.28,.36-.42,.96-.42,1.81v3.35h-1.43V5.6h1.43v2.41c0,.39-.02,.8-.07,1.24h.09c.2-.33,.47-.58,.81-.76,.35-.18,.75-.27,1.22-.27,1.64,0,2.45,.82,2.45,2.47v4.4Zm7.98-3.39c0,1.1-.28,1.96-.85,2.58s-1.35,.93-2.36,.93c-.63,0-1.19-.14-1.67-.43-.48-.29-.86-.69-1.12-1.23-.26-.53-.39-1.15-.39-1.86,0-1.09,.28-1.95,.84-2.56,.56-.61,1.35-.92,2.37-.92s1.75,.31,2.32,.94c.57,.63,.85,1.48,.85,2.54Zm-4.91,0c0,1.56,.58,2.34,1.73,2.34s1.71-.78,1.71-2.34-.57-2.31-1.72-2.31c-.6,0-1.04,.2-1.31,.6s-.41,.97-.41,1.71Zm9.99-3.48c.29,0,.53,.02,.71,.06l-.14,1.34c-.2-.05-.42-.07-.63-.07-.57,0-1.04,.19-1.39,.56-.36,.37-.53,.86-.53,1.46v3.53h-1.43v-6.75h1.12l.19,1.19h.07c.22-.4,.52-.72,.88-.96s.75-.35,1.16-.35Zm4.48,5.84c.35,0,.7-.06,1.05-.17v1.08c-.16,.07-.36,.13-.61,.17s-.51,.07-.78,.07c-1.36,0-2.04-.72-2.04-2.15v-3.64h-.92v-.63l.99-.52,.49-1.43h.88v1.5h1.92v1.09h-1.92v3.61c0,.35,.09,.6,.26,.77,.17,.17,.4,.25,.68,.25Zm10.41,1.04l-.2-.88h-.07c-.2,.31-.48,.56-.85,.74s-.79,.27-1.26,.27c-.82,0-1.43-.2-1.83-.61-.4-.41-.6-1.02-.6-1.85v-4.41h1.45v4.16c0,.52,.11,.9,.32,1.16,.21,.26,.54,.39,.99,.39,.6,0,1.04-.18,1.33-.54,.28-.36,.42-.96,.42-1.81v-3.36h1.44v6.75h-1.13Zm6.6-6.87c.29,0,.53,.02,.71,.06l-.14,1.34c-.2-.05-.42-.07-.63-.07-.57,0-1.04,.19-1.39,.56-.36,.37-.53,.86-.53,1.46v3.53h-1.43v-6.75h1.12l.19,1.19h.07c.22-.4,.52-.72,.88-.96,.36-.24,.75-.35,1.16-.35Zm3.4,6.87h-1.43V5.6h1.43V15.1Z"/><path class="d" d="M49.11,12.37c0,.66-.24,1.17-.72,1.52-.48,.35-1.17,.53-2.06,.53s-1.62-.14-2.17-.41v-1.24c.79,.37,1.53,.55,2.22,.55,.88,0,1.32-.27,1.32-.8,0-.17-.05-.31-.15-.43-.1-.11-.26-.23-.48-.35-.22-.12-.53-.26-.93-.42-.78-.3-1.3-.6-1.58-.9-.27-.3-.41-.69-.41-1.17,0-.58,.23-1.03,.7-1.35,.47-.32,1.1-.48,1.9-.48s1.54,.16,2.25,.48l-.46,1.08c-.73-.3-1.34-.45-1.84-.45-.76,0-1.14,.22-1.14,.65,0,.21,.1,.39,.3,.54s.63,.35,1.29,.6c.56,.22,.96,.41,1.21,.59,.25,.18,.44,.39,.56,.62s.18,.51,.18,.84Zm7.49,1.92h-1.44v-4.15c0-.52-.1-.91-.31-1.17-.21-.26-.54-.38-1-.38-.6,0-1.04,.18-1.33,.54-.28,.36-.42,.96-.42,1.81v3.35h-1.43V4.8h1.43v2.41c0,.39-.02,.8-.07,1.24h.09c.2-.33,.47-.58,.81-.76,.35-.18,.75-.27,1.22-.27,1.64,0,2.45,.82,2.45,2.47v4.4Zm7.98-3.39c0,1.1-.28,1.96-.85,2.58s-1.35,.93-2.36,.93c-.63,0-1.19-.14-1.67-.43-.48-.29-.86-.69-1.12-1.23-.26-.53-.39-1.15-.39-1.86,0-1.09,.28-1.95,.84-2.56,.56-.61,1.35-.92,2.37-.92s1.75,.31,2.32,.94c.57,.63,.85,1.48,.85,2.54Zm-4.91,0c0,1.56,.58,2.34,1.73,2.34s1.71-.78,1.71-2.34-.57-2.31-1.72-2.31c-.6,0-1.04,.2-1.31,.6s-.41,.97-.41,1.72Zm9.99-3.49c.29,0,.53,.02,.71,.06l-.14,1.34c-.2-.05-.42-.07-.63-.07-.57,0-1.04,.19-1.39,.56-.36,.37-.53,.86-.53,1.46v3.53h-1.43V7.55h1.12l.19,1.19h.07c.22-.4,.52-.72,.88-.96s.75-.35,1.16-.35Zm4.48,5.84c.35,0,.7-.06,1.05-.17v1.08c-.16,.07-.36,.13-.61,.17s-.51,.07-.78,.07c-1.36,0-2.04-.72-2.04-2.15v-3.64h-.92v-.63l.99-.52,.49-1.43h.88v1.5h1.92v1.09h-1.92v3.61c0,.35,.09,.6,.26,.77,.17,.17,.4,.25,.68,.25Zm10.41,1.04l-.2-.88h-.07c-.2,.31-.48,.56-.85,.74s-.79,.27-1.26,.27c-.82,0-1.43-.2-1.83-.61-.4-.41-.6-1.02-.6-1.85V7.55h1.45v4.16c0,.52,.11,.9,.32,1.16,.21,.26,.54,.39,.99,.39,.6,0,1.04-.18,1.33-.54,.28-.36,.42-.96,.42-1.81v-3.36h1.44v6.75h-1.13Zm6.6-6.87c.29,0,.53,.02,.71,.06l-.14,1.34c-.2-.05-.42-.07-.63-.07-.57,0-1.04,.19-1.39,.56-.36,.37-.53,.86-.53,1.46v3.53h-1.43V7.55h1.12l.19,1.19h.07c.22-.4,.52-.72,.88-.96,.36-.24,.75-.35,1.16-.35Zm3.4,6.87h-1.43V4.8h1.43V14.3Z"/><g><path class="k" d="M11.62,10.74c.48-.48,.95-.95,1.43-1.43,.02,.02,.04,.04,.06,.06,.44,.44,.89,.89,1.33,1.33,.44,.44,1.06,.44,1.5,0,1.41-1.4,2.81-2.81,4.22-4.22,.46-.46,.45-1.06,0-1.52-.45-.45-.9-.9-1.35-1.35-.44-.44-1.06-.44-1.5,0-.48,.48-.96,.96-1.43,1.44-.05,.05-.08,.05-.14,.02-.66-.37-1.38-.53-2.14-.51-.02,0-.04,0-.07,0,0,0,0,0-.02-.01,0,0,.01-.02,.02-.02,.82-.82,1.63-1.65,2.46-2.45,.69-.66,1.53-.91,2.47-.79,.7,.09,1.29,.4,1.78,.9,.47,.47,.95,.94,1.42,1.42,1.17,1.2,1.17,3.07-.01,4.27-1.43,1.44-2.87,2.88-4.31,4.31-.66,.66-1.47,.94-2.4,.87-.73-.06-1.36-.35-1.88-.87-.47-.47-.94-.94-1.41-1.4,0,0-.02-.02-.03-.03Z"/><path class="j" d="M17.33,7.86c-.48,.48-.95,.95-1.44,1.44-.01-.02-.02-.05-.05-.07-.45-.45-.9-.9-1.35-1.35-.33-.32-.78-.4-1.18-.2-.1,.05-.19,.12-.27,.2-1.43,1.43-2.86,2.85-4.29,4.28-.41,.41-.4,1.04,0,1.44,.47,.47,.94,.94,1.41,1.41,.41,.41,1.04,.41,1.46,0,.49-.49,.98-.97,1.46-1.46,.04-.04,.07-.05,.12-.02,.67,.38,1.39,.54,2.16,.52,.02,0,.04,0,.06,0,0,0,0,0,.02,.01-.01,.01-.02,.03-.04,.04-.81,.81-1.61,1.63-2.44,2.43-.72,.69-1.6,.93-2.58,.78-.65-.1-1.2-.41-1.67-.87-.46-.46-.92-.92-1.38-1.38-.62-.63-.93-1.38-.91-2.26,.02-.78,.31-1.47,.86-2.03,1.46-1.47,2.92-2.93,4.39-4.38,.47-.47,1.06-.73,1.72-.81,.98-.11,1.82,.19,2.52,.88,.47,.47,.94,.94,1.41,1.41Z"/></g></svg>