<svg xmlns="http://www.w3.org/2000/svg" viewBox="0 0 117 20"><defs><clipPath id="A"><rect width="117" height="20" rx="3" fill="none"/></clipPath><linearGradient id="B" x1="58.18" y1="0" x2="58.18" y2="20" gradientUnits="userSpaceOnUse"><stop offset="0" stop-color="#bbb" stop-opacity=".1"/><stop offset="1" stop-opacity=".1"/></linearGradient></defs><g clip-path="url(#A)"><path d="M0,0H30V20H0V0Z" fill="#3cf"/><path d="M30 0h87v20H30V0z" fill="#554596"/><path d="M0,0H117V20H0V0Z" fill="url(#B)"/></g><path d="M49.11 13.17c0 .66-.24 1.17-.72 1.52s-1.17.53-2.06.53-1.62-.14-2.17-.41v-1.24c.79.37 1.53.55 2.22.55.88 0 1.32-.27 1.32-.8 0-.17-.05-.31-.15-.43-.1-.11-.26-.23-.48-.35s-.53-.26-.93-.42c-.78-.3-1.3-.6-1.58-.9-.27-.3-.41-.69-.41-1.17 0-.58.23-1.03.7-1.35s1.1-.48 1.9-.48A5.38 5.38 0 0 1 49 8.7l-.46 1.08c-.73-.3-1.34-.45-1.84-.45-.76 0-1.14.22-1.14.65 0 .21.1.39.3.54s.63.35 1.29.6c.56.22.96.41 1.21.59a1.81 1.81 0 0 1 .56.62c.12.23.18.51.18.84zm7.49 1.92h-1.44v-4.15c0-.52-.1-.91-.31-1.17s-.54-.38-1-.38c-.6 0-1.04.18-1.33.54-.28.36-.42.96-.42 1.81v3.35h-1.43V5.6h1.43v2.41c0 .39-.02.8-.07 1.24h.09c.2-.33.47-.58.81-.76.35-.18.75-.27 1.22-.27 1.64 0 2.45.82 2.45 2.47v4.4zm7.98-3.39c0 1.1-.28 1.96-.85 2.58s-1.35.93-2.36.93c-.63 0-1.19-.14-1.67-.43a2.85 2.85 0 0 1-1.12-1.23c-.26-.53-.39-1.15-.39-1.86 0-1.09.28-1.95.84-2.56s1.35-.92 2.37-.92 1.75.31 2.32.94.85 1.48.85 2.54zm-4.91 0c0 1.56.58 2.34 1.73 2.34s1.71-.78 1.71-2.34-.57-2.31-1.72-2.31c-.6 0-1.04.2-1.31.6s-.41.97-.41 1.71zm9.99-3.48c.29 0 .53.02.71.06l-.14 1.34c-.2-.05-.42-.07-.63-.07-.57 0-1.04.19-1.39.56-.36.37-.53.86-.53 1.46v3.53h-1.43V8.35h1.12l.19 1.19h.07c.22-.4.52-.72.88-.96a2.05 2.05 0 0 1 1.16-.35zm4.48 5.84c.35 0 .7-.06 1.05-.17v1.08c-.16.07-.36.13-.61.17s-.51.07-.78.07c-1.36 0-2.04-.72-2.04-2.15V9.42h-.92v-.63l.99-.52.49-1.43h.88v1.5h1.92v1.09H73.2v3.61c0 .35.09.6.26.77s.4.25.68.25zm10.41 1.04l-.2-.88h-.07c-.2.31-.48.56-.85.74s-.79.27-1.26.27c-.82 0-1.43-.2-1.83-.61s-.6-1.02-.6-1.85V8.36h1.45v4.16c0 .52.11.9.32 1.16s.54.39.99.39c.6 0 1.04-.18 1.33-.54.28-.36.42-.96.42-1.81V8.36h1.44v6.75h-1.13zm6.6-6.87c.29 0 .53.02.71.06l-.14 1.34c-.2-.05-.42-.07-.63-.07-.57 0-1.04.19-1.39.56-.36.37-.53.86-.53 1.46v3.53h-1.43V8.36h1.12l.19 1.19h.07c.22-.4.52-.72.88-.96a2.05 2.05 0 0 1 1.16-.35zm3.4 6.87h-1.43V5.6h1.43v9.5z"/><path d="M49.11 12.37c0 .66-.24 1.17-.72 1.52s-1.17.53-2.06.53-1.62-.14-2.17-.41v-1.24c.79.37 1.53.55 2.22.55.88 0 1.32-.27 1.32-.8 0-.17-.05-.31-.15-.43-.1-.11-.26-.23-.48-.35s-.53-.26-.93-.42c-.78-.3-1.3-.6-1.58-.9-.27-.3-.41-.69-.41-1.17 0-.58.23-1.03.7-1.35s1.1-.48 1.9-.48A5.38 5.38 0 0 1 49 7.9l-.46 1.08c-.73-.3-1.34-.45-1.84-.45-.76 0-1.14.22-1.14.65 0 .21.1.39.3.54s.63.35 1.29.6c.56.22.96.41 1.21.59a1.81 1.81 0 0 1 .56.62c.12.23.18.51.18.84zm7.49 1.92h-1.44v-4.15c0-.52-.1-.91-.31-1.17s-.54-.38-1-.38c-.6 0-1.04.18-1.33.54-.28.36-.42.96-.42 1.81v3.35h-1.43V4.8h1.43v2.41c0 .39-.02.8-.07 1.24h.09c.2-.33.47-.58.81-.76.35-.18.75-.27 1.22-.27 1.64 0 2.45.82 2.45 2.47v4.4zm7.98-3.39c0 1.1-.28 1.96-.85 2.58s-1.35.93-2.36.93c-.63 0-1.19-.14-1.67-.43a2.85 2.85 0 0 1-1.12-1.23c-.26-.53-.39-1.15-.39-1.86 0-1.09.28-1.95.84-2.56s1.35-.92 2.37-.92 1.75.31 2.32.94.85 1.48.85 2.54zm-4.91 0c0 1.56.58 2.34 1.73 2.34s1.71-.78 1.71-2.34-.57-2.31-1.72-2.31c-.6 0-1.04.2-1.31.6s-.41.97-.41 1.72zm9.99-3.49c.29 0 .53.02.71.06l-.14 1.34c-.2-.05-.42-.07-.63-.07-.57 0-1.04.19-1.39.56-.36.37-.53.86-.53 1.46v3.53h-1.43V7.55h1.12l.19 1.19h.07c.22-.4.52-.72.88-.96a2.05 2.05 0 0 1 1.16-.35zm4.48 5.84c.35 0 .7-.06 1.05-.17v1.08c-.16.07-.36.13-.61.17s-.51.07-.78.07c-1.36 0-2.04-.72-2.04-2.15V8.61h-.92v-.63l.99-.52.49-1.43h.88v1.5h1.92v1.09H73.2v3.61c0 .35.09.6.26.77s.4.25.68.25zm10.41 1.04l-.2-.88h-.07c-.2.31-.48.56-.85.74s-.79.27-1.26.27c-.82 0-1.43-.2-1.83-.61s-.6-1.02-.6-1.85V7.55h1.45v4.16c0 .52.11.9.32 1.16s.54.39.99.39c.6 0 1.04-.18 1.33-.54.28-.36.42-.96.42-1.81V7.55h1.44v6.75h-1.13zm6.6-6.87c.29 0 .53.02.71.06l-.14 1.34c-.2-.05-.42-.07-.63-.07-.57 0-1.04.19-1.39.56-.36.37-.53.86-.53 1.46v3.53h-1.43V7.55h1.12l.19 1.19h.07c.22-.4.52-.72.88-.96a2.05 2.05 0 0 1 1.16-.35zm3.4 6.87h-1.43V4.8h1.43v9.5z" fill="#fff"/><path d="M11.62 10.74l1.43-1.43.06.06 1.33 1.33c.44.44 1.06.44 1.5 0l4.22-4.22c.46-.46.45-1.06 0-1.52l-1.35-1.35c-.44-.44-1.06-.44-1.5 0l-1.43 1.44c-.05.05-.08.05-.14.02-.66-.37-1.38-.53-2.14-.51h-.07l-.02-.01s.01-.02.02-.02l2.46-2.45c.69-.66 1.53-.91 2.47-.79.7.09 1.29.4 1.78.9l1.42 1.42c1.17 1.2 1.17 3.07-.01 4.27l-4.31 4.31c-.66.66-1.47.94-2.4.87-.73-.06-1.36-.35-1.88-.87l-1.41-1.4-.03-.03z" fill="#30c"/><path d="M17.33 7.86L15.89 9.3c-.01-.02-.02-.05-.05-.07l-1.35-1.35c-.33-.32-.78-.4-1.18-.2a1.05 1.05 0 0 0-.27.2l-4.29 4.28c-.41.41-.4 1.04 0 1.44l1.41 1.41a1.02 1.02 0 0 0 1.46 0l1.46-1.46c.04-.04.07-.05.12-.02.67.38 1.39.54 2.16.52h.06l.02.01c-.01.01-.02.03-.04.04l-2.44 2.43c-.72.69-1.6.93-2.58.78-.65-.1-1.2-.41-1.67-.87l-1.38-1.38c-.62-.63-.93-1.38-.91-2.26a2.93 2.93 0 0 1 .86-2.03l4.39-4.38c.47-.47 1.06-.73 1.72-.81.98-.11 1.82.19 2.52.88l1.41 1.41z" fill="#63c"/></svg>